<?xml version="1.0" encoding="UTF-8"?>
<svg xmlns="http://www.w3.org/2000/svg" xmlns:xlink="http://www.w3.org/1999/xlink" width="1000px" height="783px" viewBox="0 0 1000 783" version="1.1">
<defs>
<filter id="alpha" filterUnits="objectBoundingBox" x="0%" y="0%" width="100%" height="100%">
  <feColorMatrix type="matrix" in="SourceGraphic" values="0 0 0 0 1 0 0 0 0 1 0 0 0 0 1 0 0 0 1 0"/>
</filter>
<mask id="mask0">
  <g filter="url(#alpha)">
<rect x="0" y="0" width="1000" height="783" style="fill:rgb(0%,0%,0%);fill-opacity:0.101961;stroke:none;"/>
  </g>
</mask>
<clipPath id="clip1">
  <rect x="0" y="0" width="1000" height="783"/>
</clipPath>
<g id="surface5" clip-path="url(#clip1)">
<path style=" stroke:none;fill-rule:nonzero;fill:rgb(42.352941%,38.823529%,100%);fill-opacity:1;" d="M 581.085938 138.03125 C 516.96875 135.609375 455.855469 113.128906 397.585938 88.539062 C 339.320312 63.949219 281.566406 36.699219 218.949219 23.671875 C 178.691406 15.28125 132.652344 14.101562 100.222656 37.539062 C 69.003906 60.089844 58.921875 99.019531 53.5 135.140625 C 49.417969 162.320312 47.054688 190.921875 58.203125 216.371094 C 65.96875 234.03125 79.742188 248.878906 89.273438 265.800781 C 122.421875 324.671875 98.988281 397.269531 63.058594 454.800781 C 46.207031 481.800781 26.65625 507.488281 13.65625 536.199219 C 0.652344 564.910156 -5.367188 597.800781 6.011719 627.078125 C 17.292969 656.078125 44.160156 677.898438 73.277344 693.230469 C 132.414062 724.339844 202.089844 733.238281 270.035156 738.339844 C 420.441406 749.511719 571.65625 744.671875 722.457031 739.828125 C 778.269531 738.03125 834.328125 736.21875 889.226562 726.828125 C 919.714844 721.621094 951.195312 713.359375 973.332031 693.421875 C 1001.425781 668.101562 1008.398438 625.238281 989.566406 593.488281 C 957.984375 540.25 870.664062 527.019531 848.582031 469.878906 C 836.4375 438.429688 848.914062 403.390625 866.574219 374.21875 C 904.449219 311.648438 967.945312 256.75 971.289062 185.21875 C 973.589844 136.089844 943.066406 86.898438 895.867188 63.648438 C 846.398438 39.261719 777.800781 42.339844 741.308594 82.648438 C 703.730469 124.179688 637.6875 140.160156 581.085938 138.03125 Z M 581.085938 138.03125 "/>
</g>
<mask id="mask1">
  <g filter="url(#alpha)">
<rect x="0" y="0" width="1000" height="783" style="fill:rgb(0%,0%,0%);fill-opacity:0.25098;stroke:none;"/>
  </g>
</mask>
<clipPath id="clip2">
  <rect x="0" y="0" width="1000" height="783"/>
</clipPath>
<g id="surface8" clip-path="url(#clip2)">
<path style=" stroke:none;fill-rule:nonzero;fill:rgb(0%,0%,0%);fill-opacity:1;" d="M 885.949219 209.339844 C 880.589844 214.980469 855.644531 220.820312 855.644531 220.820312 C 855.644531 220.820312 861.769531 193.921875 867.128906 188.269531 C 872.507812 182.796875 880.933594 183.019531 886.066406 188.765625 C 891.199219 194.511719 891.148438 203.664062 885.949219 209.339844 Z M 885.949219 209.339844 "/>
</g>
<mask id="mask2">
  <g filter="url(#alpha)">
<rect x="0" y="0" width="1000" height="783" style="fill:rgb(0%,0%,0%);fill-opacity:0.25098;stroke:none;"/>
  </g>
</mask>
<clipPath id="clip3">
  <rect x="0" y="0" width="1000" height="783"/>
</clipPath>
<g id="surface11" clip-path="url(#clip3)">
<path style=" stroke:none;fill-rule:nonzero;fill:rgb(0%,0%,0%);fill-opacity:1;" d="M 871.839844 257.96875 C 864.476562 259.550781 840.652344 249.730469 840.652344 249.730469 C 840.652344 249.730469 859.253906 230.730469 866.574219 229.179688 C 871.359375 228.027344 876.34375 229.777344 879.601562 233.753906 C 882.859375 237.730469 883.878906 243.308594 882.269531 248.335938 C 880.660156 253.363281 876.667969 257.050781 871.839844 257.96875 Z M 871.839844 257.96875 "/>
</g>
<mask id="mask3">
  <g filter="url(#alpha)">
<rect x="0" y="0" width="1000" height="783" style="fill:rgb(0%,0%,0%);fill-opacity:0.25098;stroke:none;"/>
  </g>
</mask>
<clipPath id="clip4">
  <rect x="0" y="0" width="1000" height="783"/>
</clipPath>
<g id="surface14" clip-path="url(#clip4)">
<path style=" stroke:none;fill-rule:nonzero;fill:rgb(0%,0%,0%);fill-opacity:1;" d="M 820.496094 310.648438 C 813.445312 308 797.414062 286.441406 797.414062 286.441406 C 797.414062 286.441406 822.273438 280.261719 829.347656 282.910156 C 833.96875 284.574219 837.410156 288.816406 838.351562 294.007812 C 839.292969 299.195312 837.589844 304.535156 833.894531 307.984375 C 830.199219 311.429688 825.078125 312.449219 820.496094 310.648438 Z M 820.496094 310.648438 "/>
</g>
<mask id="mask4">
  <g filter="url(#alpha)">
<rect x="0" y="0" width="1000" height="783" style="fill:rgb(0%,0%,0%);fill-opacity:0.25098;stroke:none;"/>
  </g>
</mask>
<clipPath id="clip5">
  <rect x="0" y="0" width="1000" height="783"/>
</clipPath>
<g id="surface17" clip-path="url(#clip5)">
<path style=" stroke:none;fill-rule:nonzero;fill:rgb(0%,0%,0%);fill-opacity:1;" d="M 773.316406 341.011719 C 765.949219 339.691406 746.832031 321.339844 746.832031 321.339844 C 746.832031 321.339844 770.394531 310.679688 777.753906 312 C 785.128906 313.316406 790.121094 320.875 788.910156 328.886719 C 787.695312 336.894531 780.734375 342.316406 773.359375 341 Z M 773.316406 341.011719 "/>
</g>
<mask id="mask5">
  <g filter="url(#alpha)">
<rect x="0" y="0" width="1000" height="783" style="fill:rgb(0%,0%,0%);fill-opacity:0.25098;stroke:none;"/>
  </g>
</mask>
<clipPath id="clip6">
  <rect x="0" y="0" width="1000" height="783"/>
</clipPath>
<g id="surface20" clip-path="url(#clip6)">
<path style=" stroke:none;fill-rule:nonzero;fill:rgb(0%,0%,0%);fill-opacity:1;" d="M 819.851562 228.699219 C 819.84375 236.808594 833.386719 260.339844 833.386719 260.339844 C 833.386719 260.339844 846.914062 236.839844 846.914062 228.738281 C 847.042969 223.40625 844.496094 218.417969 840.261719 215.707031 C 836.027344 213 830.777344 213 826.542969 215.707031 C 822.308594 218.417969 819.761719 223.40625 819.890625 228.738281 Z M 819.851562 228.699219 "/>
</g>
<mask id="mask6">
  <g filter="url(#alpha)">
<rect x="0" y="0" width="1000" height="783" style="fill:rgb(0%,0%,0%);fill-opacity:0.25098;stroke:none;"/>
  </g>
</mask>
<clipPath id="clip7">
  <rect x="0" y="0" width="1000" height="783"/>
</clipPath>
<g id="surface23" clip-path="url(#clip7)">
<path style=" stroke:none;fill-rule:nonzero;fill:rgb(0%,0%,0%);fill-opacity:1;" d="M 765.128906 264.960938 C 767.355469 272.699219 786.730469 290.75 786.730469 290.75 C 786.730469 290.75 793.175781 263.929688 790.929688 256.191406 C 788.507812 248.738281 781.085938 244.703125 774.140625 247.066406 C 767.199219 249.429688 763.222656 257.339844 765.148438 264.960938 Z M 765.128906 264.960938 "/>
</g>
<mask id="mask7">
  <g filter="url(#alpha)">
<rect x="0" y="0" width="1000" height="783" style="fill:rgb(0%,0%,0%);fill-opacity:0.25098;stroke:none;"/>
  </g>
</mask>
<clipPath id="clip8">
  <rect x="0" y="0" width="1000" height="783"/>
</clipPath>
<g id="surface26" clip-path="url(#clip8)">
<path style=" stroke:none;fill-rule:nonzero;fill:rgb(0%,0%,0%);fill-opacity:1;" d="M 716.445312 308.128906 C 717.441406 316.128906 733.71875 337.5 733.71875 337.5 C 733.71875 337.5 744.226562 312.25 743.230469 304.21875 C 742.695312 298.921875 739.558594 294.359375 735.035156 292.292969 C 730.511719 290.230469 725.3125 290.988281 721.453125 294.277344 C 717.59375 297.566406 715.675781 302.867188 716.445312 308.128906 Z M 716.445312 308.128906 "/>
</g>
<linearGradient id="linear0" gradientUnits="userSpaceOnUse" x1="786.97" y1="154.07" x2="786.97" y2="135.69" gradientTransform="matrix(0.92081,0,0,1,-52.430939,-58.66)">
<stop offset="0" style="stop-color:rgb(50.196078%,50.196078%,50.196078%);stop-opacity:0.25098;"/>
<stop offset="0.54" style="stop-color:rgb(50.196078%,50.196078%,50.196078%);stop-opacity:0.121569;"/>
<stop offset="1" style="stop-color:rgb(50.196078%,50.196078%,50.196078%);stop-opacity:0.101961;"/>
</linearGradient>
<linearGradient id="linear1" gradientUnits="userSpaceOnUse" x1="619.77" y1="841.34" x2="619.77" y2="58.66" gradientTransform="matrix(0.92081,0,0,1,-52.430939,-58.66)">
<stop offset="0" style="stop-color:rgb(50.196078%,50.196078%,50.196078%);stop-opacity:0.25098;"/>
<stop offset="0.54" style="stop-color:rgb(50.196078%,50.196078%,50.196078%);stop-opacity:0.121569;"/>
<stop offset="1" style="stop-color:rgb(50.196078%,50.196078%,50.196078%);stop-opacity:0.101961;"/>
</linearGradient>
<mask id="mask8">
  <g filter="url(#alpha)">
<rect x="0" y="0" width="1000" height="783" style="fill:rgb(0%,0%,0%);fill-opacity:0.101961;stroke:none;"/>
  </g>
</mask>
<clipPath id="clip9">
  <rect x="0" y="0" width="1000" height="783"/>
</clipPath>
<g id="surface29" clip-path="url(#clip9)">
<path style=" stroke:none;fill-rule:nonzero;fill:rgb(0%,0%,0%);fill-opacity:1;" d="M 657.84375 151.339844 C 648.886719 185.554688 620.804688 209.730469 588.085938 211.390625 C 583.417969 204.070312 577.210938 196.878906 569.476562 193.128906 C 549.925781 183.609375 652.164062 133.640625 652.164062 133.640625 C 653.773438 139.644531 655.671875 145.550781 657.84375 151.339844 Z M 657.84375 151.339844 "/>
</g>
<mask id="mask9">
  <g filter="url(#alpha)">
<rect x="0" y="0" width="1000" height="783" style="fill:rgb(0%,0%,0%);fill-opacity:0.101961;stroke:none;"/>
  </g>
</mask>
<clipPath id="clip10">
  <rect x="0" y="0" width="1000" height="783"/>
</clipPath>
<g id="surface32" clip-path="url(#clip10)">
<path style=" stroke:none;fill-rule:nonzero;fill:rgb(0%,0%,0%);fill-opacity:1;" d="M 664.558594 171.828125 C 664.558594 171.828125 677.515625 174.828125 665.910156 185.160156 C 654.308594 195.488281 614.28125 228.339844 614.28125 228.339844 C 614.28125 228.339844 628.34375 241.941406 625.433594 257.871094 L 672.015625 229.671875 L 680.304688 184.550781 C 680.304688 184.550781 681.234375 170.988281 664.558594 171.828125 Z M 664.558594 171.828125 "/>
</g>
<mask id="mask10">
  <g filter="url(#alpha)">
<rect x="0" y="0" width="1000" height="783" style="fill:rgb(0%,0%,0%);fill-opacity:0.101961;stroke:none;"/>
  </g>
</mask>
<clipPath id="clip11">
  <rect x="0" y="0" width="1000" height="783"/>
</clipPath>
<g id="surface35" clip-path="url(#clip11)">
<path style=" stroke:none;fill-rule:nonzero;fill:rgb(0%,0%,0%);fill-opacity:1;" d="M 623.445312 228.339844 L 593.8125 233.648438 C 593.8125 233.648438 599.925781 258.199219 596.871094 265.171875 C 596.777344 265.386719 596.699219 265.609375 596.640625 265.839844 L 584.546875 301.328125 L 593.609375 329.199219 L 624.972656 282.75 L 614.28125 265.171875 C 614.28125 265.171875 625.582031 248.910156 632.300781 243.269531 C 639.023438 237.628906 623.445312 228.339844 623.445312 228.339844 Z M 623.445312 228.339844 "/>
</g>
<mask id="mask11">
  <g filter="url(#alpha)">
<rect x="0" y="0" width="1000" height="783" style="fill:rgb(0%,0%,0%);fill-opacity:0.101961;stroke:none;"/>
  </g>
</mask>
<clipPath id="clip12">
  <rect x="0" y="0" width="1000" height="783"/>
</clipPath>
<g id="surface38" clip-path="url(#clip12)">
<path style=" stroke:none;fill-rule:nonzero;fill:rgb(0%,0%,0%);fill-opacity:1;" d="M 590.121094 214.519531 C 590.121094 214.519531 592.945312 220.261719 605.421875 230.609375 C 605.421875 230.609375 584.648438 242.609375 592.597656 259.480469 L 560.820312 250.480469 L 555.929688 233.890625 Z M 590.121094 214.519531 "/>
</g>
<mask id="mask12">
  <g filter="url(#alpha)">
<rect x="0" y="0" width="1000" height="783" style="fill:rgb(0%,0%,0%);fill-opacity:0.101961;stroke:none;"/>
  </g>
</mask>
<clipPath id="clip13">
  <rect x="0" y="0" width="1000" height="783"/>
</clipPath>
<g id="surface41" clip-path="url(#clip13)">
<path style=" stroke:none;fill-rule:nonzero;fill:rgb(0%,0%,0%);fill-opacity:1;" d="M 671.710938 242 L 650.9375 294.640625 L 632.652344 329.578125 L 573.960938 329.578125 L 556.851562 281.808594 L 563.773438 232.269531 L 576.234375 232.269531 C 576.03125 243.828125 579.917969 257.410156 579.667969 262.460938 C 579.246094 270.761719 591.066406 315.539062 591.066406 315.539062 C 591.066406 315.539062 615.808594 272.078125 625.582031 268.210938 C 631.722656 265.78125 644.734375 245.558594 653.5625 230.839844 Z M 671.710938 242 "/>
</g>
<mask id="mask13">
  <g filter="url(#alpha)">
<rect x="0" y="0" width="1000" height="783" style="fill:rgb(0%,0%,0%);fill-opacity:0.101961;stroke:none;"/>
  </g>
</mask>
<clipPath id="clip14">
  <rect x="0" y="0" width="1000" height="783"/>
</clipPath>
<g id="surface44" clip-path="url(#clip14)">
<path style=" stroke:none;fill-rule:nonzero;fill:rgb(0%,0%,0%);fill-opacity:1;" d="M 664.546875 168.339844 C 664.546875 168.339844 692.789062 159.640625 699.207031 177.550781 C 705.625 195.460938 719.980469 267.789062 719.980469 267.789062 C 719.980469 267.789062 682.707031 275.421875 672.9375 267.789062 C 667.207031 263.261719 660.113281 261.246094 653.074219 262.148438 L 632 277.738281 L 625.773438 275.738281 C 625.773438 275.738281 659.492188 221.300781 666.824219 202.800781 C 674.152344 184.300781 676.628906 176.03125 664.546875 168.339844 Z M 664.546875 168.339844 "/>
</g>
<mask id="mask14">
  <g filter="url(#alpha)">
<rect x="0" y="0" width="1000" height="783" style="fill:rgb(0%,0%,0%);fill-opacity:0.101961;stroke:none;"/>
  </g>
</mask>
<clipPath id="clip15">
  <rect x="0" y="0" width="1000" height="783"/>
</clipPath>
<g id="surface47" clip-path="url(#clip15)">
<path style=" stroke:none;fill-rule:nonzero;fill:rgb(0%,0%,0%);fill-opacity:1;" d="M 473.757812 452.890625 C 473.757812 452.890625 494.835938 458.53125 498.8125 471.46875 C 502.789062 484.410156 483.230469 484.738281 483.230469 484.738281 C 483.230469 484.738281 471.316406 461.851562 473.757812 452.890625 Z M 473.757812 452.890625 "/>
</g>
<mask id="mask15">
  <g filter="url(#alpha)">
<rect x="0" y="0" width="1000" height="783" style="fill:rgb(0%,0%,0%);fill-opacity:0.101961;stroke:none;"/>
  </g>
</mask>
<clipPath id="clip16">
  <rect x="0" y="0" width="1000" height="783"/>
</clipPath>
<g id="surface50" clip-path="url(#clip16)">
<path style=" stroke:none;fill-rule:nonzero;fill:rgb(0%,0%,0%);fill-opacity:1;" d="M 552.265625 548.429688 C 552.265625 548.429688 500.644531 663.21875 512.558594 674.171875 C 524.476562 685.121094 552.265625 548.429688 552.265625 548.429688 Z M 552.265625 548.429688 "/>
</g>
<mask id="mask16">
  <g filter="url(#alpha)">
<rect x="0" y="0" width="1000" height="783" style="fill:rgb(0%,0%,0%);fill-opacity:0.101961;stroke:none;"/>
  </g>
</mask>
<clipPath id="clip17">
  <rect x="0" y="0" width="1000" height="783"/>
</clipPath>
<g id="surface53" clip-path="url(#clip17)">
<path style=" stroke:none;fill-rule:nonzero;fill:rgb(0%,0%,0%);fill-opacity:1;" d="M 623.445312 463.839844 C 623.445312 463.839844 664.6875 575.339844 656.4375 592.558594 C 648.1875 609.78125 674.152344 592.558594 674.152344 592.558594 Z M 623.445312 463.839844 "/>
</g>
<mask id="mask17">
  <g filter="url(#alpha)">
<rect x="0" y="0" width="1000" height="783" style="fill:rgb(0%,0%,0%);fill-opacity:0.101961;stroke:none;"/>
  </g>
</mask>
<clipPath id="clip18">
  <rect x="0" y="0" width="1000" height="783"/>
</clipPath>
<g id="surface56" clip-path="url(#clip18)">
<path style=" stroke:none;fill-rule:nonzero;fill:rgb(0%,0%,0%);fill-opacity:1;" d="M 660.71875 126.109375 C 660.730469 136.960938 658.769531 147.707031 654.945312 157.730469 C 653.664062 157.890625 652.386719 157.988281 651.152344 158.050781 C 649.308594 153.660156 650.292969 148.589844 650.332031 143.761719 C 650.367188 138.929688 648.730469 133.25 644.449219 131.949219 C 635.910156 129.339844 630.019531 146.671875 621.601562 143.539062 C 615.15625 141.160156 616.839844 130.539062 613.128906 124.410156 C 610.195312 119.558594 604.308594 118.191406 599.734375 115.148438 C 590 108.660156 590.292969 98.28125 585.773438 88.460938 C 581.039062 78.171875 571.039062 81.210938 562.355469 87.28125 C 555.765625 91.898438 550.074219 98.089844 543.019531 101.769531 C 536.914062 104.96875 530.054688 106.128906 523.289062 106.300781 C 519.121094 106.476562 514.953125 105.996094 510.910156 104.878906 C 520.742188 64.738281 556.460938 38.738281 594.386719 44.113281 C 632.316406 49.488281 660.691406 84.570312 660.710938 126.109375 Z M 660.71875 126.109375 "/>
</g>
<mask id="mask18">
  <g filter="url(#alpha)">
<rect x="0" y="0" width="1000" height="783" style="fill:rgb(0%,0%,0%);fill-opacity:0.101961;stroke:none;"/>
  </g>
</mask>
<clipPath id="clip19">
  <rect x="0" y="0" width="1000" height="783"/>
</clipPath>
<g id="surface59" clip-path="url(#clip19)">
<path style=" stroke:none;fill-rule:nonzero;fill:rgb(0%,0%,0%);fill-opacity:1;" d="M 469.28125 490.210938 C 469.28125 480.042969 460.984375 471.800781 450.746094 471.800781 C 440.507812 471.800781 432.210938 480.042969 432.210938 490.210938 C 432.210938 500.378906 440.507812 508.621094 450.746094 508.621094 C 460.984375 508.621094 469.28125 500.378906 469.28125 490.210938 Z M 469.28125 490.210938 "/>
</g>
<mask id="mask19">
  <g filter="url(#alpha)">
<rect x="0" y="0" width="1000" height="783" style="fill:rgb(0%,0%,0%);fill-opacity:0.101961;stroke:none;"/>
  </g>
</mask>
<clipPath id="clip20">
  <rect x="0" y="0" width="1000" height="783"/>
</clipPath>
<g id="surface62" clip-path="url(#clip20)">
<path style=" stroke:none;fill-rule:nonzero;fill:rgb(0%,0%,0%);fill-opacity:1;" d="M 671.023438 157.261719 C 670.871094 156.722656 670.585938 156.246094 670.195312 155.878906 C 668.609375 154.308594 665.203125 153.761719 660.066406 154.238281 L 660.277344 156.878906 C 667.128906 156.238281 668.480469 157.71875 668.65625 157.96875 L 668.65625 158.21875 L 668.867188 158.550781 C 670.59375 161.070312 671.261719 164.265625 670.710938 167.351562 C 669.207031 175.5 659.992188 181.988281 659.898438 182.058594 L 659.675781 182.199219 L 659.539062 182.429688 C 655.5625 188.839844 633.066406 206.929688 627.183594 211.609375 L 626.667969 210.96875 C 624.03125 213.449219 600.882812 235.460938 599.632812 243.890625 C 598.820312 249.179688 593.332031 251.230469 591.34375 251.800781 C 589.246094 250.070312 582.429688 244.179688 578.886719 237.578125 C 575.5625 231.371094 588.941406 219.25 590.121094 214.519531 L 588.277344 212.46875 C 588.085938 213.230469 570.902344 230.671875 575.679688 239.578125 C 579.511719 246.730469 586.511719 252.851562 588.960938 254.871094 C 588.175781 262.589844 583.304688 307.921875 575.820312 318.660156 C 566.519531 332.011719 558.703125 399.289062 559.566406 422.78125 C 560.332031 443.648438 555.3125 483.070312 538.554688 500 C 532.675781 506.199219 524.515625 509.144531 516.390625 508 L 515.984375 508 C 515.746094 508 491.4375 510.699219 471.011719 492 C 454.300781 476.730469 444.835938 451.808594 442.863281 417.910156 L 442.457031 417.910156 L 442.292969 408.039062 C 451.710938 406.445312 458.28125 397.046875 457.164062 386.765625 C 456.046875 376.484375 447.644531 369.003906 438.144531 369.832031 C 428.640625 370.660156 421.445312 379.496094 421.851562 389.839844 C 422.253906 400.179688 430.117188 408.324219 439.648438 408.269531 L 439.851562 408.269531 L 440.019531 418.078125 L 439.207031 418.140625 C 441.234375 453.140625 451.179688 479.03125 468.675781 495.019531 C 481.972656 506.988281 498.957031 513.023438 516.195312 511.910156 C 517.421875 512.054688 518.648438 512.128906 519.878906 512.128906 C 527.78125 512.175781 535.386719 508.851562 541.058594 502.878906 C 558.710938 485.03125 564.078125 444.160156 563.242188 422.578125 C 562.320312 397.691406 570.523438 332.828125 578.757812 321.019531 C 586.824219 309.429688 591.710938 264.269531 592.570312 255.519531 C 595.488281 254.628906 602.089844 251.820312 603.214844 244.519531 C 604.023438 239.238281 619.484375 222.96875 628.996094 213.960938 L 628.710938 213.601562 C 633.832031 209.539062 649.75 196.738281 657.644531 188.519531 C 660.09375 185.96875 662.523438 183.421875 665.066406 180.988281 C 668.121094 178.050781 672.007812 173.378906 673.03125 167.859375 C 673.734375 164.175781 673.007812 160.34375 671.023438 157.261719 Z M 671.023438 157.261719 "/>
</g>
<mask id="mask20">
  <g filter="url(#alpha)">
<rect x="0" y="0" width="1000" height="783" style="fill:rgb(0%,0%,0%);fill-opacity:0.101961;stroke:none;"/>
  </g>
</mask>
<clipPath id="clip21">
  <rect x="0" y="0" width="1000" height="783"/>
</clipPath>
<g id="surface65" clip-path="url(#clip21)">
<path style=" stroke:none;fill-rule:nonzero;fill:rgb(0%,0%,0%);fill-opacity:1;" d="M 668.5625 102.46875 C 670.074219 96.410156 671.898438 90.308594 673.167969 84.171875 C 671.648438 90.339844 669.816406 96.410156 668.5625 102.46875 Z M 668.5625 102.46875 "/>
<path style=" stroke:none;fill-rule:nonzero;fill:rgb(0%,0%,0%);fill-opacity:1;" d="M 653.160156 150.089844 C 651.316406 145.699219 652.300781 140.621094 652.339844 135.800781 C 652.375 130.980469 650.738281 125.339844 646.464844 123.988281 C 637.917969 121.398438 632.027344 138.710938 623.628906 135.578125 C 617.183594 133.191406 618.886719 122.578125 615.164062 116.449219 C 612.226562 111.589844 606.34375 110.230469 601.777344 107.191406 C 592.035156 100.699219 592.328125 90.320312 587.816406 80.5 C 583.074219 70.199219 573.085938 73.238281 564.390625 79.320312 C 557.789062 83.941406 552.109375 90.128906 545.054688 93.820312 C 538.949219 97.011719 532.089844 98.171875 525.324219 98.339844 C 517.082031 98.550781 508.113281 96.960938 502.449219 90.460938 C 498.085938 85.460938 496.511719 78.128906 497.414062 71.261719 C 497.257812 71.730469 497.117188 72.199219 496.980469 72.671875 C 494.769531 80.539062 496.058594 89.789062 501.226562 95.769531 C 506.886719 102.269531 515.855469 103.851562 524.097656 103.648438 C 530.875 103.480469 537.726562 102.320312 543.839844 99.128906 C 550.910156 95.429688 556.59375 89.25 563.175781 84.628906 C 571.871094 78.550781 581.871094 75.511719 586.601562 85.808594 C 591.113281 95.628906 590.828125 106.011719 600.5625 112.5 C 605.164062 115.5 611.011719 116.898438 613.960938 121.761719 C 617.644531 127.910156 616.011719 138.5 622.421875 140.890625 C 630.808594 144.011719 636.703125 126.710938 645.25 129.300781 C 649.519531 130.601562 651.167969 136.300781 651.125 141.109375 C 651.078125 145.921875 650.121094 151.011719 651.941406 155.398438 C 659.023438 155.050781 667.78125 153.398438 669.835938 146 C 670.117188 144.9375 670.246094 143.835938 670.222656 142.730469 C 667.226562 148.339844 659.53125 149.78125 653.160156 150.089844 Z M 653.160156 150.089844 "/>
</g>
<mask id="mask21">
  <g filter="url(#alpha)">
<rect x="0" y="0" width="1000" height="783" style="fill:rgb(0%,0%,0%);fill-opacity:0.101961;stroke:none;"/>
  </g>
</mask>
<clipPath id="clip22">
  <rect x="0" y="0" width="1000" height="783"/>
</clipPath>
<g id="surface68" clip-path="url(#clip22)">
<path style=" stroke:none;fill-rule:nonzero;fill:rgb(0%,0%,0%);fill-opacity:1;" d="M 819.578125 396.488281 L 830.265625 408.769531 C 830.265625 408.769531 838.820312 476.441406 843.09375 482.769531 C 847.367188 489.101562 857.457031 514.28125 847.984375 533.191406 C 847.984375 533.191406 844.925781 543.480469 846.757812 547.789062 C 848.589844 552.101562 833.019531 573.671875 833.019531 573.671875 C 833.019531 573.671875 812.550781 593.570312 808.269531 596.558594 C 803.988281 599.550781 781.390625 623.429688 773.757812 623.761719 C 766.125 624.089844 763.628906 634.378906 763.628906 634.378906 L 720.550781 636.039062 C 720.550781 636.039062 696.757812 634.691406 691.582031 638.339844 C 691.582031 638.339844 694.347656 598.859375 667.761719 572.980469 L 701.667969 559.710938 C 701.667969 559.710938 714.503906 553.710938 718.472656 547.441406 C 720.96875 543.597656 724.511719 540.695312 728.601562 539.148438 C 728.601562 539.148438 738.066406 531.851562 738.371094 527.871094 C 738.675781 523.890625 749.945312 519.011719 749.945312 519.011719 L 743.5625 459.859375 L 746.925781 361.660156 C 746.925781 361.660156 757.613281 279.378906 780.222656 284.03125 C 802.828125 288.679688 819.578125 396.488281 819.578125 396.488281 Z M 819.578125 396.488281 "/>
</g>
<mask id="mask22">
  <g filter="url(#alpha)">
<rect x="0" y="0" width="1000" height="783" style="fill:rgb(0%,0%,0%);fill-opacity:0.101961;stroke:none;"/>
  </g>
</mask>
<clipPath id="clip23">
  <rect x="0" y="0" width="1000" height="783"/>
</clipPath>
<g id="surface71" clip-path="url(#clip23)">
<path style=" stroke:none;fill-rule:nonzero;fill:rgb(0%,0%,0%);fill-opacity:1;" d="M 783.515625 495.691406 C 783.515625 495.691406 814.980469 486.691406 823.230469 497.691406 C 831.484375 508.691406 783.515625 495.691406 783.515625 495.691406 Z M 783.515625 495.691406 "/>
</g>
<mask id="mask23">
  <g filter="url(#alpha)">
<rect x="0" y="0" width="1000" height="783" style="fill:rgb(0%,0%,0%);fill-opacity:0.101961;stroke:none;"/>
  </g>
</mask>
<clipPath id="clip24">
  <rect x="0" y="0" width="1000" height="783"/>
</clipPath>
<g id="surface74" clip-path="url(#clip24)">
<path style=" stroke:none;fill-rule:nonzero;fill:rgb(0%,0%,0%);fill-opacity:1;" d="M 776.1875 510.78125 C 786.878906 518.910156 819.871094 519.238281 819.871094 519.238281 Z M 776.1875 510.78125 "/>
</g>
<mask id="mask24">
  <g filter="url(#alpha)">
<rect x="0" y="0" width="1000" height="783" style="fill:rgb(0%,0%,0%);fill-opacity:0.101961;stroke:none;"/>
  </g>
</mask>
<clipPath id="clip25">
  <rect x="0" y="0" width="1000" height="783"/>
</clipPath>
<g id="surface77" clip-path="url(#clip25)">
<path style=" stroke:none;fill-rule:nonzero;fill:rgb(0%,0%,0%);fill-opacity:1;" d="M 792.375 551.421875 C 793.296875 551.75 815.054688 576.96875 824.191406 569.339844 C 833.324219 561.710938 792.375 551.421875 792.375 551.421875 Z M 792.375 551.421875 "/>
</g>
<mask id="mask25">
  <g filter="url(#alpha)">
<rect x="0" y="0" width="1000" height="783" style="fill:rgb(0%,0%,0%);fill-opacity:0.101961;stroke:none;"/>
  </g>
</mask>
<clipPath id="clip26">
  <rect x="0" y="0" width="1000" height="783"/>
</clipPath>
<g id="surface80" clip-path="url(#clip26)">
<path style=" stroke:none;fill-rule:nonzero;fill:rgb(0%,0%,0%);fill-opacity:1;" d="M 499.335938 339.761719 C 499.335938 339.761719 505.726562 387.539062 502.578125 407 C 499.429688 426.460938 510.921875 450.570312 510.921875 450.570312 Z M 499.335938 339.761719 "/>
</g>
<mask id="mask26">
  <g filter="url(#alpha)">
<rect x="0" y="0" width="1000" height="783" style="fill:rgb(0%,0%,0%);fill-opacity:0.101961;stroke:none;"/>
  </g>
</mask>
<clipPath id="clip27">
  <rect x="0" y="0" width="1000" height="783"/>
</clipPath>
<g id="surface83" clip-path="url(#clip27)">
<path style=" stroke:none;fill-rule:nonzero;fill:rgb(0%,0%,0%);fill-opacity:1;" d="M 357.863281 357.859375 C 350.496094 364.140625 345.121094 378.96875 341.226562 395.28125 C 317.414062 403.132812 291.558594 396.160156 273.894531 377.128906 C 272.097656 363.660156 270.496094 353.210938 270.496094 353.210938 C 270.496094 353.210938 378.03125 340.609375 357.863281 357.859375 Z M 357.863281 357.859375 "/>
</g>
<mask id="mask27">
  <g filter="url(#alpha)">
<rect x="0" y="0" width="1000" height="783" style="fill:rgb(0%,0%,0%);fill-opacity:0.101961;stroke:none;"/>
  </g>
</mask>
<clipPath id="clip28">
  <rect x="0" y="0" width="1000" height="783"/>
</clipPath>
<g id="surface86" clip-path="url(#clip28)">
<path style=" stroke:none;fill-rule:nonzero;fill:rgb(0%,0%,0%);fill-opacity:1;" d="M 442.871094 782.679688 L 423.535156 782.679688 L 421.90625 745.589844 L 420.203125 707.199219 C 420.203125 707.199219 424.59375 706.488281 431.59375 705.429688 L 434.417969 705.019531 L 434.648438 705.019531 C 436.179688 712.808594 437.6875 720.808594 439.144531 728.800781 C 441.566406 742.984375 442.824219 757.375 442.910156 771.800781 C 442.910156 772.800781 442.910156 773.800781 442.910156 774.738281 C 442.964844 777.410156 442.910156 780.078125 442.871094 782.679688 Z M 442.871094 782.679688 "/>
</g>
<mask id="mask28">
  <g filter="url(#alpha)">
<rect x="0" y="0" width="1000" height="783" style="fill:rgb(0%,0%,0%);fill-opacity:0.101961;stroke:none;"/>
  </g>
</mask>
<clipPath id="clip29">
  <rect x="0" y="0" width="1000" height="783"/>
</clipPath>
<g id="surface89" clip-path="url(#clip29)">
<path style=" stroke:none;fill-rule:nonzero;fill:rgb(0%,0%,0%);fill-opacity:1;" d="M 277.21875 407.761719 C 277.21875 407.761719 260.488281 400.761719 260.691406 411.378906 C 260.894531 422 264.769531 427.078125 263.546875 428.628906 C 262.320312 430.179688 264.152344 439.46875 264.152344 439.46875 C 264.152344 439.46875 286.757812 439.46875 297.144531 444.550781 C 307.53125 449.628906 345.820312 459.808594 350.710938 462.910156 C 355.597656 466.011719 373.730469 479.910156 373.730469 479.910156 L 375.359375 453.589844 C 375.359375 453.589844 356.621094 436.78125 325.875 428.160156 C 295.128906 419.539062 277.21875 407.761719 277.21875 407.761719 Z M 277.21875 407.761719 "/>
</g>
<mask id="mask29">
  <g filter="url(#alpha)">
<rect x="0" y="0" width="1000" height="783" style="fill:rgb(0%,0%,0%);fill-opacity:0.101961;stroke:none;"/>
  </g>
</mask>
<clipPath id="clip30">
  <rect x="0" y="0" width="1000" height="783"/>
</clipPath>
<g id="surface92" clip-path="url(#clip30)">
<path style=" stroke:none;fill-rule:nonzero;fill:rgb(0%,0%,0%);fill-opacity:1;" d="M 327.726562 469.769531 C 327.726562 469.769531 359.695312 507.359375 358.066406 517.769531 C 356.4375 528.179688 327.726562 469.769531 327.726562 469.769531 Z M 327.726562 469.769531 "/>
</g>
<mask id="mask30">
  <g filter="url(#alpha)">
<rect x="0" y="0" width="1000" height="783" style="fill:rgb(0%,0%,0%);fill-opacity:0.101961;stroke:none;"/>
  </g>
</mask>
<clipPath id="clip31">
  <rect x="0" y="0" width="1000" height="783"/>
</clipPath>
<g id="surface95" clip-path="url(#clip31)">
<path style=" stroke:none;fill-rule:nonzero;fill:rgb(0%,0%,0%);fill-opacity:1;" d="M 275.792969 605.558594 C 275.792969 605.558594 252.355469 629.011719 245.453125 630.339844 C 238.546875 631.671875 250.746094 636.089844 258.683594 632.558594 C 266.621094 629.03125 283.546875 619.738281 283.546875 619.738281 Z M 275.792969 605.558594 "/>
</g>
<mask id="mask31">
  <g filter="url(#alpha)">
<rect x="0" y="0" width="1000" height="783" style="fill:rgb(0%,0%,0%);fill-opacity:0.101961;stroke:none;"/>
  </g>
</mask>
<clipPath id="clip32">
  <rect x="0" y="0" width="1000" height="783"/>
</clipPath>
<g id="surface98" clip-path="url(#clip32)">
<path style=" stroke:none;fill-rule:nonzero;fill:rgb(0%,0%,0%);fill-opacity:1;" d="M 374.464844 276.039062 C 372.523438 280.800781 370.78125 285.738281 370.523438 291.039062 C 369.796875 306.339844 370.976562 340.550781 355.378906 348.230469 C 347.652344 352.011719 339.382812 343.710938 330.910156 343.511719 C 324.816406 343.371094 319.226562 347.570312 315.507812 352.820312 C 311.785156 358.070312 309.476562 364.300781 306.777344 370.238281 C 304.320312 375.632812 301.492188 380.8125 298.316406 385.738281 C 297.363281 387.246094 296.320312 388.679688 295.183594 390.03125 C 269.125 378.089844 252.628906 349.84375 253.78125 319.152344 C 254.9375 288.464844 273.507812 261.777344 300.375 252.1875 C 327.246094 242.597656 356.773438 252.121094 374.464844 276.078125 Z M 374.464844 276.039062 "/>
</g>
<mask id="mask32">
  <g filter="url(#alpha)">
<rect x="0" y="0" width="1000" height="783" style="fill:rgb(0%,0%,0%);fill-opacity:0.101961;stroke:none;"/>
  </g>
</mask>
<clipPath id="clip33">
  <rect x="0" y="0" width="1000" height="783"/>
</clipPath>
<g id="surface101" clip-path="url(#clip33)">
<path style=" stroke:none;fill-rule:nonzero;fill:rgb(0%,0%,0%);fill-opacity:1;" d="M 356.851562 741.339844 C 352.15625 739.128906 343.609375 740.449219 328.941406 735.601562 C 314.273438 730.75 311.445312 708.828125 311.445312 708.828125 L 311.445312 708.761719 C 311.269531 708.261719 309.90625 705 300.679688 693.578125 C 290.488281 680.96875 268.453125 617.28125 268.453125 617.28125 C 268.453125 617.28125 248.914062 594.488281 249.53125 586.089844 C 250.148438 577.691406 246.058594 555.339844 246.464844 530.339844 C 246.871094 505.339844 290.453125 488.761719 290.453125 488.761719 C 374.363281 472.609375 354.605469 577.671875 352.367188 585.628906 C 350.128906 593.589844 361.742188 615.089844 361.742188 615.089844 C 360.101562 624.449219 368.460938 638.941406 368.460938 638.941406 C 368.460938 638.941406 370.488281 651.761719 370.902344 656.628906 C 370.925781 656.855469 370.972656 657.078125 371.039062 657.289062 C 372.386719 661.878906 383.34375 666.039062 387.800781 668.570312 C 392.484375 671.230469 407.558594 694.449219 407.558594 694.449219 C 410.808594 711.5 361.527344 743.578125 356.851562 741.339844 Z M 356.851562 741.339844 "/>
</g>
<mask id="mask33">
  <g filter="url(#alpha)">
<rect x="0" y="0" width="1000" height="783" style="fill:rgb(0%,0%,0%);fill-opacity:0.101961;stroke:none;"/>
  </g>
</mask>
<clipPath id="clip34">
  <rect x="0" y="0" width="1000" height="783"/>
</clipPath>
<g id="surface104" clip-path="url(#clip34)">
<path style=" stroke:none;fill-rule:nonzero;fill:rgb(0%,0%,0%);fill-opacity:1;" d="M 294.53125 539.660156 C 294.53125 539.660156 331.1875 581.660156 340.753906 581.660156 C 350.324219 581.660156 294.53125 539.660156 294.53125 539.660156 Z M 294.53125 539.660156 "/>
</g>
<mask id="mask34">
  <g filter="url(#alpha)">
<rect x="0" y="0" width="1000" height="783" style="fill:rgb(0%,0%,0%);fill-opacity:0.101961;stroke:none;"/>
  </g>
</mask>
<clipPath id="clip35">
  <rect x="0" y="0" width="1000" height="783"/>
</clipPath>
<g id="surface107" clip-path="url(#clip35)">
<path style=" stroke:none;fill-rule:nonzero;fill:rgb(0%,0%,0%);fill-opacity:1;" d="M 225.652344 348.191406 C 225.699219 348.269531 225.765625 348.339844 225.820312 348.421875 C 226.097656 348.039062 226.382812 347.660156 226.675781 347.300781 C 226.363281 347.632812 226.019531 347.929688 225.652344 348.191406 Z M 225.652344 348.191406 "/>
<path style=" stroke:none;fill-rule:nonzero;fill:rgb(0%,0%,0%);fill-opacity:1;" d="M 247.015625 394.03125 C 247.402344 388.480469 250.136719 383.589844 252.699219 378.710938 C 251.023438 378.011719 249.347656 377.300781 247.6875 376.558594 C 247.847656 375.4375 247.925781 374.304688 247.929688 373.171875 C 245.339844 378.171875 242.523438 383.089844 242.128906 388.71875 C 241.65625 395.398438 244.6875 401.71875 247.375 407.71875 C 257.726562 430.921875 264.105469 458.058594 256.324219 482.421875 C 252.945312 493 247.117188 502.421875 242.855469 512.648438 C 235.40625 530.765625 233.214844 550.917969 236.574219 570.421875 C 238.683594 582.550781 242.957031 594.539062 241.90625 606.828125 C 240.066406 627.980469 223.277344 643.71875 206.445312 654.53125 C 199.566406 658.949219 191.527344 663 183.839844 662.710938 C 183.128906 663.953125 182.335938 665.140625 181.464844 666.261719 C 191.125 670.890625 202.238281 665.679688 211.324219 659.839844 C 228.167969 649.039062 244.992188 633.339844 246.832031 612.148438 C 247.882812 599.859375 243.609375 587.871094 241.492188 575.738281 C 238.128906 556.238281 240.3125 536.089844 247.753906 517.96875 C 251.988281 507.75 257.882812 498.320312 261.226562 487.738281 C 269.003906 463.378906 262.613281 436.238281 252.273438 413.039062 C 249.59375 407 246.546875 400.710938 247.015625 394.03125 Z M 247.015625 394.03125 "/>
<path style=" stroke:none;fill-rule:nonzero;fill:rgb(0%,0%,0%);fill-opacity:1;" d="M 373.074219 239.980469 C 372.167969 238.972656 371.195312 238.035156 370.164062 237.179688 C 381.324219 252.898438 365.210938 266.261719 364.410156 283.179688 C 363.691406 298.480469 364.871094 332.699219 349.261719 340.359375 C 341.546875 344.148438 333.269531 335.851562 324.804688 335.648438 C 318.703125 335.511719 313.121094 339.71875 309.390625 344.960938 C 305.664062 350.199219 303.371094 356.441406 300.671875 362.378906 C 298.210938 367.769531 295.378906 372.953125 292.199219 377.878906 C 290.359375 380.808594 288.203125 383.730469 285.277344 385.378906 C 280.210938 388.25 274.050781 386.640625 268.589844 384.78125 C 263.28125 382.964844 258.019531 380.964844 252.808594 378.78125 C 252.796875 379.820312 252.71875 380.859375 252.570312 381.890625 C 259.4375 384.929688 266.410156 387.65625 273.480469 390.070312 C 278.933594 391.929688 285.09375 393.539062 290.164062 390.671875 C 293.085938 389.019531 295.203125 386.089844 297.089844 383.160156 C 300.269531 378.238281 303.101562 373.058594 305.550781 367.671875 C 308.257812 361.730469 310.542969 355.480469 314.28125 350.238281 C 318.019531 345 323.589844 340.800781 329.6875 340.941406 C 338.160156 341.140625 346.4375 349.441406 354.152344 345.648438 C 369.761719 337.988281 368.574219 303.769531 369.300781 288.46875 C 370.148438 270.679688 387.972656 256.820312 373.074219 239.980469 Z M 373.074219 239.980469 "/>
</g>
<mask id="mask35">
  <g filter="url(#alpha)">
<rect x="0" y="0" width="1000" height="783" style="fill:rgb(0%,0%,0%);fill-opacity:0.101961;stroke:none;"/>
  </g>
</mask>
<clipPath id="clip36">
  <rect x="0" y="0" width="1000" height="783"/>
</clipPath>
<g id="surface110" clip-path="url(#clip36)">
<path style=" stroke:none;fill-rule:nonzero;fill:rgb(0%,0%,0%);fill-opacity:1;" d="M 251.742188 380.421875 C 250.957031 381.921875 250.195312 383.421875 249.492188 384.960938 C 249.226562 385.550781 248.96875 386.160156 248.738281 386.769531 C 243.914062 381.488281 232.164062 368.941406 225.609375 365.050781 C 227.203125 361.339844 229.28125 357.898438 231.777344 354.828125 C 231.777344 354.828125 247.402344 363.800781 251.742188 380.421875 Z M 251.742188 380.421875 "/>
</g>
</defs>
<g id="surface1">
<use xlink:href="#surface5" mask="url(#mask0)"/>
<path style="fill:none;stroke-width:2;stroke-linecap:butt;stroke-linejoin:miter;stroke:rgb(32.54902%,32.941176%,38.039216%);stroke-opacity:1;stroke-miterlimit:10;" d="M 299.190117 783.699062 C 299.190117 783.699062 244.190156 742.120937 233.801039 689.230312 C 229.588547 667.015469 218.283117 646.765469 201.590109 631.519375 C 193.60207 624.3475 184.977703 617.921719 175.81882 612.320156 " transform="matrix(0.92081,0,0,1,-52.430939,-58.66)"/>
<path style=" stroke:none;fill-rule:nonzero;fill:rgb(42.352941%,38.823529%,100%);fill-opacity:1;" d="M 103.269531 520.339844 C 107.707031 526.859375 109.714844 554.488281 109.714844 554.488281 C 109.714844 554.488281 85.984375 544.339844 81.539062 537.828125 C 77.089844 531.3125 78.351562 522.113281 84.351562 517.285156 C 90.351562 512.457031 98.820312 513.824219 103.269531 520.339844 Z M 103.269531 520.339844 "/>
<path style=" stroke:none;fill-rule:nonzero;fill:rgb(42.352941%,38.823529%,100%);fill-opacity:1;" d="M 145.828125 542.019531 C 146.289062 550.109375 134.160156 574.488281 134.160156 574.488281 C 134.160156 574.488281 119.308594 551.949219 118.839844 543.859375 C 118.46875 535.835938 124.109375 528.976562 131.492188 528.472656 C 138.878906 527.96875 145.265625 534.007812 145.820312 542.019531 Z M 145.828125 542.019531 "/>
<path style=" stroke:none;fill-rule:nonzero;fill:rgb(42.352941%,38.823529%,100%);fill-opacity:1;" d="M 187.082031 604.339844 C 183.730469 611.578125 161.914062 625.980469 161.914062 625.980469 C 161.914062 625.980469 159.585938 598.378906 162.9375 591.140625 C 166.371094 584.058594 174.394531 581.265625 180.976562 584.863281 C 187.5625 588.464844 190.277344 597.125 187.082031 604.339844 Z M 187.082031 604.339844 "/>
<path style=" stroke:none;fill-rule:nonzero;fill:rgb(42.352941%,38.823529%,100%);fill-opacity:1;" d="M 208.527344 659.101562 C 206.34375 666.851562 187.089844 685.039062 187.089844 685.039062 C 187.089844 685.039062 180.488281 658.269531 182.671875 650.511719 C 184.855469 642.757812 192.414062 638.394531 199.554688 640.765625 C 206.695312 643.136719 210.710938 651.347656 208.527344 659.101562 Z M 208.527344 659.101562 "/>
<path style=" stroke:none;fill-rule:nonzero;fill:rgb(42.352941%,38.823529%,100%);fill-opacity:1;" d="M 112.210938 594.089844 C 119.578125 595.171875 142.863281 583.75 142.863281 583.75 C 142.863281 583.75 123.214844 566.070312 115.808594 564.988281 C 108.410156 563.910156 101.605469 569.550781 100.613281 577.585938 C 99.617188 585.621094 104.8125 593.011719 112.210938 594.089844 Z M 112.210938 594.089844 "/>
<path style=" stroke:none;fill-rule:nonzero;fill:rgb(42.352941%,38.823529%,100%);fill-opacity:1;" d="M 138.039062 657.800781 C 145.40625 656.429688 164.4375 637.980469 164.4375 637.980469 C 164.4375 637.980469 140.808594 627.5 133.453125 628.871094 C 128.660156 629.722656 124.65625 633.304688 122.964844 638.25 C 121.277344 643.195312 122.160156 648.746094 125.28125 652.785156 C 128.402344 656.828125 133.277344 658.742188 138.058594 657.800781 Z M 138.039062 657.800781 "/>
<path style=" stroke:none;fill-rule:nonzero;fill:rgb(42.352941%,38.823529%,100%);fill-opacity:1;" d="M 170.957031 715.988281 C 178.425781 715.988281 200.066406 701.300781 200.066406 701.300781 C 200.066406 701.300781 178.417969 686.628906 170.949219 686.628906 C 163.484375 686.628906 157.429688 693.203125 157.429688 701.308594 C 157.429688 709.417969 163.484375 715.988281 170.949219 715.988281 Z M 170.957031 715.988281 "/>
<path style="fill:none;stroke-width:2;stroke-linecap:butt;stroke-linejoin:miter;stroke:rgb(32.54902%,32.941176%,38.039216%);stroke-opacity:1;stroke-miterlimit:10;" d="M 833.489391 424.070156 C 833.489391 424.070156 867.388711 364.019375 918.490102 346.718594 C 939.947086 339.593594 958.515141 325.702969 971.411391 307.12875 C 977.456508 298.249844 982.674398 288.835781 987.00143 278.999844 " transform="matrix(0.92081,0,0,1,-52.430939,-58.66)"/>
<path style=" stroke:none;fill-rule:nonzero;fill:rgb(42.352941%,38.823529%,100%);fill-opacity:1;" d="M 885.949219 209.339844 C 880.589844 214.980469 855.644531 220.820312 855.644531 220.820312 C 855.644531 220.820312 861.769531 193.921875 867.128906 188.269531 C 872.507812 182.796875 880.933594 183.019531 886.066406 188.765625 C 891.199219 194.511719 891.148438 203.664062 885.949219 209.339844 Z M 885.949219 209.339844 "/>
<path style=" stroke:none;fill-rule:nonzero;fill:rgb(42.352941%,38.823529%,100%);fill-opacity:1;" d="M 871.839844 257.96875 C 864.476562 259.550781 840.652344 249.730469 840.652344 249.730469 C 840.652344 249.730469 859.253906 230.730469 866.574219 229.179688 C 871.359375 228.027344 876.34375 229.777344 879.601562 233.753906 C 882.859375 237.730469 883.878906 243.308594 882.269531 248.335938 C 880.660156 253.363281 876.667969 257.050781 871.839844 257.96875 Z M 871.839844 257.96875 "/>
<path style=" stroke:none;fill-rule:nonzero;fill:rgb(42.352941%,38.823529%,100%);fill-opacity:1;" d="M 820.496094 310.648438 C 813.445312 308 797.414062 286.441406 797.414062 286.441406 C 797.414062 286.441406 822.273438 280.261719 829.347656 282.910156 C 833.96875 284.574219 837.410156 288.816406 838.351562 294.007812 C 839.292969 299.195312 837.589844 304.535156 833.894531 307.984375 C 830.199219 311.429688 825.078125 312.449219 820.496094 310.648438 Z M 820.496094 310.648438 "/>
<path style=" stroke:none;fill-rule:nonzero;fill:rgb(42.352941%,38.823529%,100%);fill-opacity:1;" d="M 773.316406 341.011719 C 765.949219 339.691406 746.832031 321.339844 746.832031 321.339844 C 746.832031 321.339844 770.394531 310.679688 777.753906 312 C 785.128906 313.316406 790.121094 320.875 788.910156 328.886719 C 787.695312 336.894531 780.734375 342.316406 773.359375 341 Z M 773.316406 341.011719 "/>
<path style=" stroke:none;fill-rule:nonzero;fill:rgb(42.352941%,38.823529%,100%);fill-opacity:1;" d="M 819.851562 228.699219 C 819.84375 236.808594 833.386719 260.339844 833.386719 260.339844 C 833.386719 260.339844 846.914062 236.839844 846.914062 228.738281 C 847.042969 223.40625 844.496094 218.417969 840.261719 215.707031 C 836.027344 213 830.777344 213 826.542969 215.707031 C 822.308594 218.417969 819.761719 223.40625 819.890625 228.738281 Z M 819.851562 228.699219 "/>
<path style=" stroke:none;fill-rule:nonzero;fill:rgb(42.352941%,38.823529%,100%);fill-opacity:1;" d="M 765.128906 264.960938 C 767.355469 272.699219 786.730469 290.75 786.730469 290.75 C 786.730469 290.75 793.175781 263.929688 790.929688 256.191406 C 788.507812 248.738281 781.085938 244.703125 774.140625 247.066406 C 767.199219 249.429688 763.222656 257.339844 765.148438 264.960938 Z M 765.128906 264.960938 "/>
<path style=" stroke:none;fill-rule:nonzero;fill:rgb(42.352941%,38.823529%,100%);fill-opacity:1;" d="M 716.445312 308.128906 C 717.441406 316.128906 733.71875 337.5 733.71875 337.5 C 733.71875 337.5 744.226562 312.25 743.230469 304.21875 C 742.695312 298.921875 739.558594 294.359375 735.035156 292.292969 C 730.511719 290.230469 725.3125 290.988281 721.453125 294.277344 C 717.59375 297.566406 715.675781 302.867188 716.445312 308.128906 Z M 716.445312 308.128906 "/>
<use xlink:href="#surface8" mask="url(#mask1)"/>
<use xlink:href="#surface11" mask="url(#mask2)"/>
<use xlink:href="#surface14" mask="url(#mask3)"/>
<use xlink:href="#surface17" mask="url(#mask4)"/>
<use xlink:href="#surface20" mask="url(#mask5)"/>
<use xlink:href="#surface23" mask="url(#mask6)"/>
<use xlink:href="#surface26" mask="url(#mask7)"/>
<path style="fill:none;stroke-width:2;stroke-linecap:butt;stroke-linejoin:miter;stroke:rgb(32.54902%,32.941176%,38.039216%);stroke-opacity:1;stroke-miterlimit:10;" d="M 835.440797 422.87875 C 835.440797 422.87875 842.101031 354.238125 881.761242 317.738125 C 898.488188 302.527187 909.836039 282.304531 914.099438 260.101406 C 916.042359 249.542812 917.009578 238.831875 916.988367 228.101406 " transform="matrix(0.92081,0,0,1,-52.430939,-58.66)"/>
<path style=" stroke:none;fill-rule:nonzero;fill:rgb(42.352941%,38.823529%,100%);fill-opacity:1;" d="M 814.835938 146.28125 C 812.070312 153.800781 791.410156 170.121094 791.410156 170.121094 C 791.410156 170.121094 786.96875 142.828125 789.761719 135.308594 C 792.558594 127.789062 800.4375 124.15625 807.363281 127.195312 C 814.285156 130.234375 817.632812 138.789062 814.835938 146.308594 Z M 814.835938 146.28125 "/>
<path style=" stroke:none;fill-rule:nonzero;fill:rgb(42.352941%,38.823529%,100%);fill-opacity:1;" d="M 820.09375 197 C 813.988281 201.660156 788.507812 203.191406 788.507812 203.191406 C 788.507812 203.191406 798.433594 177.648438 804.539062 172.988281 C 808.480469 169.785156 813.714844 169.164062 818.203125 171.363281 C 822.691406 173.566406 825.71875 178.242188 826.113281 183.570312 C 826.507812 188.902344 824.199219 194.042969 820.09375 196.988281 Z M 820.09375 197 "/>
<path style=" stroke:none;fill-rule:nonzero;fill:rgb(42.352941%,38.823529%,100%);fill-opacity:1;" d="M 792.78125 267.78125 C 785.339844 268.460938 762.632812 255.78125 762.632812 255.78125 C 762.632812 255.78125 783.074219 239.179688 790.515625 238.5 C 797.957031 237.820312 804.496094 243.820312 805.121094 251.898438 C 805.746094 259.980469 800.222656 267.082031 792.78125 267.761719 Z M 792.78125 267.78125 "/>
<path style=" stroke:none;fill-rule:nonzero;fill:rgb(42.352941%,38.823529%,100%);fill-opacity:1;" d="M 761.003906 316.269531 C 753.773438 318.269531 729.429688 310 729.429688 310 C 729.429688 310 746.988281 289.890625 754.21875 287.851562 C 761.445312 285.816406 768.820312 290.527344 770.695312 298.375 C 772.570312 306.222656 768.230469 314.234375 761.003906 316.269531 Z M 761.003906 316.269531 "/>
<path style=" stroke:none;fill-rule:nonzero;fill:rgb(42.352941%,38.823529%,100%);fill-opacity:1;" d="M 761.648438 193.121094 C 764.667969 200.53125 785.792969 216.121094 785.792969 216.121094 C 785.792969 216.121094 789.382812 188.679688 786.363281 181.269531 C 783.234375 174.058594 775.375 170.878906 768.664062 174.105469 C 761.953125 177.332031 758.839844 185.785156 761.648438 193.148438 Z M 761.648438 193.121094 "/>
<path style=" stroke:none;fill-rule:nonzero;fill:rgb(42.352941%,38.823529%,100%);fill-opacity:1;" d="M 725.148438 250.339844 C 730.074219 256.429688 754.511719 264.410156 754.511719 264.410156 C 754.511719 264.410156 750.386719 237.058594 745.460938 230.96875 C 742.296875 226.945312 737.378906 225.078125 732.59375 226.089844 C 727.8125 227.101562 723.898438 230.832031 722.355469 235.855469 C 720.8125 240.875 721.878906 246.410156 725.148438 250.339844 Z M 725.148438 250.339844 "/>
<path style=" stroke:none;fill-rule:nonzero;fill:rgb(42.352941%,38.823529%,100%);fill-opacity:1;" d="M 696.703125 311.261719 C 700.609375 318.160156 723.453125 330.511719 723.453125 330.511719 C 723.453125 330.511719 723.644531 302.800781 719.769531 295.890625 C 715.757812 289.257812 707.617188 287.289062 701.390625 291.445312 C 695.167969 295.601562 693.109375 304.378906 696.75 311.261719 Z M 696.703125 311.261719 "/>
<path style=" stroke:none;fill-rule:nonzero;fill:url(#linear0);" d="M 669.890625 95.410156 C 671.417969 89.320312 673.257812 83.199219 674.546875 77.03125 C 673 83.199219 671.152344 89.339844 669.890625 95.410156 Z M 669.890625 95.410156 "/>
<path style=" stroke:none;fill-rule:nonzero;fill:url(#linear1);" d="M 663.039062 154.070312 C 662.910156 153.828125 662.816406 153.589844 662.714844 153.371094 C 662.714844 153.269531 662.625 153.191406 662.585938 153.089844 C 662.386719 153.191406 662.179688 153.28125 661.96875 153.359375 C 661.566406 153.53125 661.152344 153.691406 660.726562 153.820312 C 660.304688 153.949219 660.128906 154.019531 659.804688 154.101562 C 659.539062 154.199219 659.265625 154.277344 658.988281 154.328125 L 659.0625 154.511719 C 659.402344 154.429688 659.734375 154.359375 660.074219 154.261719 L 660.164062 155.5 C 660.550781 155.5 660.910156 155.441406 661.261719 155.441406 C 661.425781 155.429688 661.59375 155.429688 661.757812 155.441406 C 662.476562 155.441406 663.101562 155.441406 663.601562 155.441406 C 663.40625 154.988281 663.203125 154.519531 663.039062 154.070312 Z M 849.964844 477.199219 C 845.636719 470.871094 837 402.929688 837 402.929688 C 837 402.929688 820.007812 354.621094 824.640625 335.339844 C 829.273438 316.058594 811.988281 266.730469 811.988281 266.730469 C 811.988281 266.730469 800.570312 261.339844 799.953125 253.339844 C 799.953125 253.339844 753.332031 237.339844 751.152344 225.339844 C 749.382812 215.5 720.46875 208.441406 710.082031 206.210938 C 706.914062 192.328125 703.730469 179.378906 701.382812 172.308594 C 700.746094 170.109375 700.148438 168.210938 699.59375 166.710938 C 695.625 155.710938 683.359375 154.710938 674.464844 155.589844 C 674.082031 153.714844 673.363281 151.9375 672.355469 150.359375 C 672.210938 149.816406 671.917969 149.332031 671.519531 148.96875 C 671.328125 148.792969 671.125 148.632812 670.910156 148.488281 C 670.75 148.164062 670.539062 147.875 670.285156 147.628906 C 670.03125 147.382812 669.753906 147.167969 669.457031 146.988281 C 669.242188 146.863281 669.019531 146.753906 668.792969 146.660156 C 668.261719 146.4375 667.707031 146.273438 667.144531 146.171875 C 666.488281 146.023438 665.824219 145.929688 665.15625 145.890625 C 666.78125 145.117188 668.230469 143.96875 669.402344 142.519531 C 670.199219 141.503906 670.789062 140.320312 671.140625 139.039062 C 671.433594 137.976562 671.5625 136.867188 671.527344 135.761719 C 671.289062 136.21875 671.011719 136.648438 670.699219 137.050781 C 671.085938 132.621094 668.933594 128.121094 667.699219 123.710938 C 666.203125 117.96875 665.925781 111.933594 666.886719 106.058594 C 668.121094 97.199219 671.179688 88.238281 673.25 79.21875 C 673.253906 79.171875 673.253906 79.121094 673.25 79.070312 C 674.335938 74.589844 675.007812 70.003906 675.257812 65.378906 C 675.617188 56.050781 673.417969 46.738281 669.878906 38.238281 C 666.742188 30.710938 662.109375 23.300781 655.019531 20.238281 C 649.75 17.929688 643.847656 18.300781 638.175781 17.921875 C 625.453125 17.058594 613.316406 12.199219 601.214844 7.78125 C 589.117188 3.359375 576.667969 -0.660156 563.933594 0.109375 C 551.195312 0.878906 538.09375 7.550781 532.285156 19.789062 C 530.441406 23.609375 529.382812 27.859375 527.183594 31.449219 C 523.058594 38.21875 515.671875 41.609375 509.511719 46.28125 C 503.351562 50.949219 497.929688 57.578125 495.699219 65.488281 C 494.484375 69.75 494.3125 74.285156 495.203125 78.640625 C 495.402344 79.625 495.660156 80.59375 495.976562 81.539062 C 496.851562 84.183594 498.214844 86.601562 499.980469 88.648438 C 501.316406 90.164062 502.847656 91.453125 504.53125 92.480469 C 506.644531 93.75 508.902344 94.707031 511.253906 95.320312 C 511.167969 95.621094 511.085938 95.941406 510.996094 96.25 C 510.847656 96.761719 510.71875 97.25 510.582031 97.800781 C 510.277344 99.03125 509.992188 100.28125 509.75 101.539062 C 509.742188 101.628906 509.742188 101.71875 509.75 101.808594 C 508.621094 107.496094 508.050781 113.300781 508.058594 119.121094 C 508.054688 121.871094 508.183594 124.621094 508.445312 127.359375 C 512.128906 167.941406 542.972656 199.949219 581.085938 202.03125 C 582.394531 202.101562 583.710938 202.140625 585.046875 202.140625 C 585.652344 202.140625 586.253906 202.140625 586.886719 202.140625 C 587.484375 203 588.074219 203.878906 588.636719 204.738281 C 589.199219 205.601562 589.714844 206.480469 590.203125 207.339844 L 588.867188 205.839844 L 587.53125 204.511719 C 587.171875 205.050781 586.765625 205.554688 586.324219 206.019531 C 585.457031 205.6875 584.566406 205.414062 583.664062 205.199219 C 579.84375 204.28125 574.023438 203.941406 566.363281 206.449219 C 559.320312 208.738281 550.710938 213.449219 540.636719 222.398438 L 491.546875 254.398438 L 464.992188 271.941406 L 455.421875 297.339844 C 455.421875 297.339844 448.230469 327.519531 440.230469 362.101562 C 439.917969 362.199219 439.613281 362.300781 439.308594 362.421875 C 438.660156 362.339844 438.007812 362.300781 437.355469 362.300781 C 427.707031 362.277344 419.769531 370.539062 419.382812 381.011719 C 403.472656 402.011719 402.570312 423.011719 406.308594 432.648438 C 406.644531 433.554688 407.070312 434.414062 407.578125 435.21875 C 410.027344 439.058594 414.605469 448.960938 419.246094 459.511719 C 419.125 460.378906 419.050781 461.109375 419.015625 461.660156 C 419.007812 461.839844 419.007812 462.019531 419.015625 462.199219 C 419.015625 462.199219 421.777344 507.511719 412.570312 520.5 C 410.550781 523.328125 410.855469 527.050781 412.570312 531.171875 C 418.738281 545.988281 443.128906 565.78125 443.128906 565.78125 C 443.128906 565.78125 472.386719 565.609375 488.683594 563.679688 C 488.636719 565.460938 488.601562 567.230469 488.5625 568.960938 C 488.195312 586.441406 488.195312 601.089844 488.195312 601.089844 L 487.585938 619.421875 C 487.585938 619.421875 482.0625 658.050781 479.300781 668.699219 C 477.558594 675.378906 479.566406 737.230469 481.316406 782.699219 L 769.546875 782.699219 C 772.9375 755.800781 768.160156 674.070312 768.160156 674.070312 C 768.160156 674.070312 763.617188 652.941406 763.453125 634.519531 C 763.433594 634.480469 763.433594 634.429688 763.453125 634.390625 C 763.453125 632.78125 763.453125 631.210938 763.507812 629.671875 L 765.597656 629.589844 L 769.355469 629.449219 L 769.695312 629.449219 C 769.695312 629.449219 769.789062 629.070312 770 628.449219 C 770.496094 626.90625 771.175781 625.4375 772.015625 624.078125 C 773.617188 621.511719 776.125 618.988281 779.890625 618.820312 C 781.96875 618.730469 785.195312 616.898438 788.832031 614.199219 C 788.855469 614.207031 788.878906 614.207031 788.902344 614.199219 C 798.691406 607.011719 811.628906 593.738281 814.769531 591.558594 C 819.089844 588.558594 839.769531 568.558594 839.769531 568.558594 C 839.769531 568.558594 842.855469 564.320312 846.140625 559.210938 L 846.261719 559.03125 C 850.351562 552.628906 854.695312 544.980469 853.628906 542.570312 C 851.785156 538.25 854.863281 527.921875 854.863281 527.921875 C 864.464844 508.828125 854.289062 483.53125 849.964844 477.199219 Z M 671.90625 169.621094 C 671.996094 169.917969 672.050781 170.226562 672.070312 170.539062 C 671.839844 170.210938 671.613281 169.859375 671.382812 169.539062 L 671.160156 169.21875 L 671.003906 168.980469 L 671.355469 168.460938 C 671.355469 168.460938 671.355469 168.460938 671.355469 168.53125 C 671.597656 168.855469 671.785156 169.222656 671.90625 169.621094 Z M 668.8125 160.761719 C 667.808594 160.980469 667.015625 161.179688 666.5 161.328125 C 665.847656 160.070312 665.222656 158.808594 664.660156 157.53125 C 666.136719 158.460938 667.527344 159.542969 668.8125 160.761719 Z M 667.082031 162.339844 C 667.078125 162.320312 667.078125 162.300781 667.082031 162.28125 L 667.15625 162.339844 C 667.53125 162.609375 667.902344 162.871094 668.242188 163.140625 C 668.546875 163.378906 668.820312 163.609375 669.097656 163.851562 C 668.914062 164.199219 668.710938 164.558594 668.507812 164.851562 C 668.1875 164.300781 667.882812 163.769531 667.585938 163.21875 C 667.402344 163 667.238281 162.699219 667.082031 162.339844 Z M 661.554688 150 C 663.335938 149.808594 665.128906 149.808594 666.90625 150 C 667.15625 150 667.375 150.050781 667.597656 150.089844 C 668.097656 150.175781 668.585938 150.3125 669.0625 150.5 C 670.148438 152.152344 670.820312 154.085938 671.003906 156.109375 L 670.507812 156.191406 L 670.019531 156.289062 C 669.097656 156.460938 668.175781 156.628906 667.457031 156.789062 L 666.539062 157 C 665.3125 157.289062 664.605469 157.511719 664.578125 157.519531 C 664.457031 157.25 664.335938 157 664.207031 156.738281 C 664.003906 156.308594 663.792969 155.871094 663.609375 155.441406 C 663.425781 155.011719 663.1875 154.519531 662.992188 154.070312 C 662.863281 153.828125 662.773438 153.589844 662.671875 153.371094 C 662.671875 153.269531 662.578125 153.191406 662.542969 153.089844 C 662.488281 152.984375 662.441406 152.875 662.402344 152.761719 C 661.839844 151.519531 661.324219 150.28125 660.828125 149.058594 C 660.773438 148.941406 660.726562 148.808594 660.679688 148.691406 L 661.382812 148.640625 L 661.382812 148.898438 Z M 441.859375 770.339844 C 441.785156 755.449219 440.792969 739.339844 438.03125 724.21875 C 436.851562 717.789062 435.636719 711.359375 434.402344 705.039062 C 434.089844 703.460938 433.785156 701.898438 433.480469 700.339844 L 430.644531 700.75 L 430.386719 700.75 C 422.652344 661.140625 414.566406 626.238281 414.566406 626.238281 C 414.566406 626.238281 398.507812 559.648438 400.367188 554.339844 C 400.609375 553.648438 400.304688 551.789062 399.621094 549.058594 C 395.738281 533.921875 379.511719 492.199219 373.839844 477.941406 C 373.839844 477.878906 373.792969 477.808594 373.773438 477.761719 C 372.855469 475.371094 372.191406 473.761719 371.988281 473.289062 L 373.324219 452.011719 L 373.398438 450.730469 L 373.574219 448.011719 L 373.5 447.941406 L 373.574219 446.679688 C 373.574219 446.679688 359.558594 434.199219 335.820312 425.191406 C 334.898438 424.828125 333.921875 424.480469 332.957031 424.140625 C 334.144531 415.53125 335.71875 405.808594 337.773438 396.339844 C 337.964844 395.390625 338.175781 394.46875 338.398438 393.539062 C 338.589844 392.609375 338.8125 391.710938 339.03125 390.800781 C 339.382812 389.320312 339.761719 387.859375 340.148438 386.421875 C 341.425781 385.980469 342.6875 385.488281 343.933594 384.96875 L 344.410156 384.769531 C 376.078125 371.386719 393.777344 334.65625 385.847656 298.769531 C 383.660156 288.929688 379.621094 279.683594 373.988281 271.621094 C 373.5625 271 373.113281 270.378906 372.660156 269.769531 C 372.210938 269.160156 371.667969 268.480469 371.160156 267.859375 C 373.820312 261.289062 376.960938 255.039062 377.21875 248.648438 C 377.265625 247.839844 377.265625 247.027344 377.21875 246.21875 L 377.21875 246.121094 C 376.878906 242.011719 375.203125 237.851562 371.296875 233.480469 C 365.597656 227.070312 357.484375 223.820312 349.375 222.261719 C 341.261719 220.699219 332.992188 220.660156 324.835938 219.609375 C 311.308594 217.851562 298.128906 213.320312 284.605469 211.929688 C 267.941406 210.253906 251.167969 213.359375 235.957031 220.929688 C 225.894531 225.929688 215.699219 234.671875 215.09375 246.660156 C 214.59375 256.570312 220.949219 266.070312 219.347656 275.859375 C 217.753906 285.480469 208.730469 293.050781 209.519531 302.78125 C 209.824219 306.578125 211.621094 309.980469 213.867188 313.011719 C 214.640625 314.011719 215.460938 315.011719 216.308594 316.011719 C 219.585938 319.78125 223.195312 323.398438 225.027344 328.148438 C 225.101562 328.351562 225.175781 328.550781 225.238281 328.75 C 226.796875 333.441406 226.097656 339.371094 222.246094 342.058594 C 222.269531 342.078125 222.285156 342.101562 222.292969 342.128906 C 222.347656 342.210938 222.402344 342.269531 222.449219 342.351562 C 222.453125 342.332031 222.453125 342.316406 222.449219 342.300781 C 223.8125 344.058594 225.652344 345.300781 227.707031 345.859375 L 228.488281 346.121094 C 227.855469 346.871094 227.257812 347.648438 226.648438 348.46875 L 226.253906 349.039062 C 225.238281 350.523438 224.316406 352.074219 223.488281 353.691406 C 223.019531 354.589844 222.570312 355.488281 222.191406 356.390625 C 220.929688 359.132812 220.015625 362.050781 219.476562 365.058594 C 218.488281 371.679688 219.878906 378.578125 218.386719 385.058594 C 216.546875 393.058594 210.71875 399.199219 207.429688 406.628906 C 201.207031 420.628906 204.734375 437.058594 205.984375 452.519531 C 207.6875 473.519531 204.925781 494.609375 202.171875 515.46875 C 200.710938 526.5625 199.25 537.667969 197.789062 548.78125 C 194.105469 576.671875 190.421875 604.566406 186.742188 632.460938 C 185.394531 642.679688 183.804688 653.460938 177.53125 661.351562 L 177.597656 661.351562 C 177.597656 661.351562 177.597656 661.410156 177.53125 661.429688 C 179.414062 662.324219 181.417969 662.882812 183.460938 663.089844 C 191.648438 663.980469 200.324219 659.679688 207.6875 654.980469 C 213.523438 651.320312 219.046875 647.105469 224.199219 642.390625 C 223.445312 645.390625 222.632812 648.660156 221.769531 652.179688 C 221.769531 652.214844 221.769531 652.246094 221.769531 652.28125 C 211.371094 695.28125 194.648438 774.109375 194.648438 774.109375 C 194.648438 774.109375 193.128906 777.539062 191.160156 782.648438 L 450.828125 782.648438 C 447.789062 778.648438 444.964844 774.820312 442.753906 771.730469 Z M 249.59375 372.738281 C 249.660156 372.621094 249.707031 372.511719 249.769531 372.398438 C 249.769531 372.71875 249.769531 373.03125 249.769531 373.328125 C 249.769531 373.628906 249.769531 373.898438 249.769531 374.179688 C 249.769531 374.460938 249.769531 374.429688 249.769531 374.570312 C 249.769531 374.710938 249.769531 374.570312 249.769531 374.570312 C 249.769531 374.980469 249.6875 375.390625 249.621094 375.800781 C 249.621094 375.800781 249.621094 375.851562 249.621094 375.890625 L 250.542969 376.261719 L 251.613281 376.738281 C 257.921875 379.445312 264.3125 381.898438 270.78125 384.089844 C 271.445312 384.320312 272.117188 384.539062 272.789062 384.75 L 272.929688 385.988281 C 273.09375 387.261719 273.25 388.550781 273.398438 389.839844 C 273.398438 389.839844 273.398438 389.898438 273.398438 389.941406 C 273.8125 393.511719 274.21875 397.070312 274.578125 400.550781 C 274.578125 400.550781 257.671875 393.550781 257.882812 404.179688 C 257.871094 404.371094 257.871094 404.558594 257.882812 404.75 C 257.863281 405.003906 257.863281 405.257812 257.882812 405.511719 C 258.039062 413.789062 260.421875 418.699219 260.902344 421.21875 C 260.875 421.324219 260.824219 421.421875 260.753906 421.5 C 260.347656 422.464844 260.207031 423.539062 260.351562 424.589844 C 260.332031 426.378906 260.464844 428.164062 260.738281 429.929688 C 260.238281 430.261719 259.75 430.589844 259.261719 430.929688 C 258.894531 431.179688 258.546875 431.460938 258.1875 431.738281 C 255.925781 423.230469 252.972656 414.957031 249.355469 407.019531 C 246.824219 401.359375 243.976562 395.460938 244.003906 389.25 C 244.003906 388.851562 244.003906 388.441406 244.050781 388.03125 C 244.152344 386.230469 244.46875 384.453125 244.992188 382.738281 C 245.203125 382.089844 245.433594 381.449219 245.691406 380.820312 C 246.292969 379.324219 246.964844 377.859375 247.707031 376.441406 C 248.1875 375.5 248.691406 374.570312 249.179688 373.628906 C 249.335938 373.351562 249.484375 373.058594 249.632812 372.78125 Z M 663.039062 154.070312 C 662.910156 153.828125 662.816406 153.589844 662.714844 153.371094 C 662.714844 153.269531 662.625 153.191406 662.585938 153.089844 C 662.386719 153.191406 662.179688 153.28125 661.96875 153.359375 C 661.566406 153.53125 661.152344 153.691406 660.726562 153.820312 C 660.304688 153.949219 660.128906 154.019531 659.804688 154.101562 L 658.988281 154.328125 L 659.0625 154.511719 C 659.402344 154.429688 659.734375 154.359375 660.074219 154.261719 L 660.164062 155.5 C 660.550781 155.5 660.910156 155.441406 661.261719 155.441406 L 661.757812 155.441406 C 662.476562 155.441406 663.101562 155.441406 663.601562 155.441406 C 663.40625 154.988281 663.203125 154.519531 663.039062 154.070312 Z M 663.039062 154.070312 "/>
<path style=" stroke:none;fill-rule:nonzero;fill:rgb(90.980392%,96.078431%,100%);fill-opacity:1;" d="M 461.839844 300.949219 L 456.316406 303.601562 C 456.316406 303.601562 420.304688 455.539062 420.304688 467.820312 C 420.304688 480.101562 496.667969 548.429688 496.667969 548.429688 L 508.582031 461.089844 C 508.582031 461.089844 491.472656 260.800781 461.839844 300.949219 Z M 461.839844 300.949219 "/>
<path style=" stroke:none;fill-rule:nonzero;fill:rgb(100%,75.686275%,78.039216%);fill-opacity:1;" d="M 629.347656 252.621094 L 597.441406 234.539062 C 595.652344 226.265625 592.480469 218.417969 588.085938 211.390625 C 583.417969 204.070312 577.210938 196.878906 569.476562 193.128906 C 549.925781 183.609375 652.164062 133.640625 652.164062 133.640625 C 653.773438 139.644531 655.671875 145.550781 657.84375 151.339844 C 663.113281 165.460938 671.851562 183.71875 683.113281 188.921875 C 702.257812 197.769531 629.347656 252.621094 629.347656 252.621094 Z M 629.347656 252.621094 "/>
<use xlink:href="#surface29" mask="url(#mask8)"/>
<path style=" stroke:none;fill-rule:nonzero;fill:rgb(100%,75.686275%,78.039216%);fill-opacity:1;" d="M 660.71875 126.109375 C 660.726562 171.804688 626.625 208.855469 584.546875 208.859375 C 542.472656 208.867188 508.359375 171.824219 508.359375 126.128906 C 508.359375 80.4375 542.472656 43.394531 584.546875 43.398438 C 604.777344 43.296875 624.203125 51.980469 638.507812 67.511719 C 652.8125 83.046875 660.808594 104.140625 660.71875 126.109375 Z M 660.71875 126.109375 "/>
<path style=" stroke:none;fill-rule:nonzero;fill:rgb(34.117647%,35.294118%,53.72549%);fill-opacity:1;" d="M 671.710938 242 L 650.9375 294.640625 L 632.613281 329.578125 L 573.960938 329.578125 L 556.851562 281.808594 L 563.785156 232.269531 L 608.582031 232.269531 L 637.503906 230.5 L 647.273438 226.960938 L 653.574219 230.839844 Z M 671.710938 242 "/>
<use xlink:href="#surface32" mask="url(#mask9)"/>
<use xlink:href="#surface35" mask="url(#mask10)"/>
<path style=" stroke:none;fill-rule:nonzero;fill:rgb(86.27451%,90.196078%,94.901961%);fill-opacity:1;" d="M 623.445312 226.96875 L 593.8125 232.269531 C 593.8125 232.269531 599.925781 256.820312 596.871094 263.789062 C 596.777344 264.007812 596.699219 264.230469 596.640625 264.460938 L 584.546875 299.949219 L 593.609375 327.820312 L 624.972656 281.339844 L 614.28125 263.761719 C 614.28125 263.761719 625.582031 247.5 632.300781 241.859375 C 639.023438 236.21875 623.445312 226.96875 623.445312 226.96875 Z M 623.445312 226.96875 "/>
<path style=" stroke:none;fill-rule:nonzero;fill:rgb(34.117647%,35.294118%,53.72549%);fill-opacity:1;" d="M 665.800781 169.179688 C 665.800781 169.179688 678.757812 172.179688 667.144531 182.511719 C 655.535156 192.839844 614.28125 228.339844 614.28125 228.339844 C 614.28125 228.339844 629.558594 239.289062 626.65625 255.210938 L 673.242188 227.019531 L 681.527344 181.898438 C 681.527344 181.898438 682.449219 168.339844 665.800781 169.179688 Z M 665.800781 169.179688 "/>
<use xlink:href="#surface38" mask="url(#mask11)"/>
<path style=" stroke:none;fill-rule:nonzero;fill:rgb(34.117647%,35.294118%,53.72549%);fill-opacity:1;" d="M 588.894531 213.199219 C 588.894531 213.199219 591.722656 218.941406 604.199219 229.289062 C 604.199219 229.289062 583.425781 241.230469 591.371094 258.148438 L 559.605469 249.148438 L 554.714844 232.570312 Z M 588.894531 213.199219 "/>
<use xlink:href="#surface41" mask="url(#mask12)"/>
<path style=" stroke:none;fill-rule:nonzero;fill:rgb(90.980392%,96.078431%,100%);fill-opacity:1;" d="M 753.546875 519.011719 L 751.4375 521.890625 C 751.4375 521.890625 766.710938 605.160156 762.484375 624.070312 C 761.769531 627.476562 761.359375 630.953125 761.261719 634.449219 L 761.261719 634.601562 C 760.515625 653.839844 765.867188 678.808594 765.867188 678.808594 C 765.867188 678.808594 770.136719 752.410156 767.707031 782.679688 L 481.683594 782.679688 C 480.007812 737.921875 478.203125 679.929688 479.84375 673.5 C 482.605469 662.890625 488.128906 624.398438 488.128906 624.398438 L 488.738281 606.160156 C 488.738281 606.160156 488.738281 588.53125 489.234375 568.890625 C 489.449219 560.058594 489.761719 550.789062 490.210938 542.570312 C 490.792969 532.230469 491.601562 523.519531 492.714844 519.238281 C 493.402344 515.996094 493.796875 512.6875 493.894531 509.359375 C 493.894531 509.050781 493.894531 508.730469 493.949219 508.410156 C 493.949219 507.410156 494.042969 506.328125 494.078125 505.21875 C 494.078125 504.910156 494.078125 504.601562 494.078125 504.21875 C 494.253906 497.78125 494.191406 490.140625 493.996094 482.21875 C 493.996094 481.789062 493.996094 481.351562 493.996094 480.910156 C 493.839844 474.96875 493.609375 468.910156 493.351562 463.148438 C 492.550781 445.148438 491.511719 429.929688 491.511719 429.929688 L 456.382812 303.53125 L 465.847656 278.210938 L 492.117188 260.730469 L 540.691406 228.878906 C 564.382812 207.730469 579.980469 210.269531 585.929688 212.589844 C 586.507812 212.804688 587.074219 213.054688 587.625 213.339844 C 587.808594 213.441406 587.957031 213.519531 588.09375 213.609375 C 588.28125 213.707031 588.464844 213.820312 588.636719 213.949219 C 587.007812 214.800781 585.59375 216.066406 584.511719 217.640625 C 583.292969 219.429688 582.425781 221.472656 581.960938 223.640625 C 581.648438 224.984375 581.433594 226.351562 581.308594 227.730469 C 581.1875 229.179688 581.140625 230.679688 581.140625 232.191406 C 581.207031 235.5 581.46875 238.804688 581.925781 242.078125 C 581.925781 242.140625 581.925781 242.21875 581.925781 242.300781 C 582.226562 244.640625 582.605469 246.929688 582.972656 249.078125 C 582.96875 249.117188 582.96875 249.152344 582.972656 249.191406 C 583.398438 251.699219 583.820312 254.019531 584.105469 256.019531 C 584.160156 256.378906 584.207031 256.710938 584.253906 257.019531 C 584.457031 258.339844 584.550781 259.679688 584.539062 261.019531 C 584.644531 264.253906 585.042969 267.472656 585.738281 270.621094 C 585.976562 271.941406 586.253906 273.351562 586.554688 274.820312 C 586.96875 276.820312 587.421875 279 587.910156 281.21875 C 588.175781 282.441406 588.460938 283.699219 588.757812 284.949219 C 588.867188 285.449219 588.988281 285.949219 589.097656 286.460938 L 589.28125 287.25 C 591.242188 295.71875 593.371094 304.148438 594.675781 309.25 C 595.453125 312.25 595.9375 314.101562 595.9375 314.101562 C 595.9375 314.101562 609.804688 289.75 620.875 275.890625 C 621.039062 275.691406 621.1875 275.5 621.34375 275.320312 C 622.441406 273.949219 623.515625 272.699219 624.546875 271.601562 C 626.804688 269.160156 628.832031 267.421875 630.460938 266.78125 C 630.808594 266.640625 631.144531 266.472656 631.464844 266.269531 C 635.996094 263.480469 643.304688 253.351562 650.148438 242.738281 C 650.820312 241.738281 651.472656 240.648438 652.136719 239.621094 C 653.65625 237.238281 655.128906 234.851562 656.519531 232.558594 C 657.585938 230.808594 658.609375 229.109375 659.578125 227.488281 C 664.179688 219.710938 667.421875 213.910156 667.421875 213.910156 L 673.8125 213.601562 L 674.925781 213.539062 L 675.671875 213.539062 L 704.6875 212.078125 C 704.6875 212.078125 705.9375 212.308594 708 212.761719 C 708.113281 212.761719 708.222656 212.761719 708.34375 212.839844 C 718.636719 215.058594 747.238281 222.089844 748.988281 231.839844 C 751.125 243.78125 797.257812 259.710938 797.257812 259.710938 C 797.863281 267.710938 809.160156 272.980469 809.160156 272.980469 C 809.160156 272.980469 826.269531 322.078125 821.695312 341.320312 C 817.171875 360.320312 833.460938 407.320312 833.894531 408.640625 L 830.773438 412.921875 Z M 753.546875 519.011719 "/>
<use xlink:href="#surface44" mask="url(#mask13)"/>
<path style=" stroke:none;fill-rule:nonzero;fill:rgb(90.980392%,96.078431%,100%);fill-opacity:1;" d="M 663.324219 164.339844 C 663.324219 164.339844 691.582031 155.640625 698.03125 173.550781 C 704.476562 191.460938 718.804688 263.789062 718.804688 263.789062 C 718.804688 263.789062 681.539062 271.421875 671.757812 263.789062 C 666.03125 259.261719 658.941406 257.246094 651.90625 258.148438 L 630.808594 273.738281 L 624.585938 271.738281 C 624.585938 271.738281 658.304688 217.300781 665.636719 198.800781 C 672.964844 180.300781 675.40625 172.050781 663.324219 164.339844 Z M 663.324219 164.339844 "/>
<use xlink:href="#surface47" mask="url(#mask14)"/>
<use xlink:href="#surface50" mask="url(#mask15)"/>
<use xlink:href="#surface53" mask="url(#mask16)"/>
<path style=" stroke:none;fill-rule:nonzero;fill:rgb(100%,75.686275%,78.039216%);fill-opacity:1;" d="M 680.875 573.980469 C 680.875 573.980469 541.574219 581.28125 582.210938 628.390625 C 622.84375 675.5 706.234375 630.390625 706.234375 630.390625 Z M 680.875 573.980469 "/>
<use xlink:href="#surface56" mask="url(#mask17)"/>
<path style=" stroke:none;fill-rule:nonzero;fill:rgb(60%,37.647059%,49.411765%);fill-opacity:1;" d="M 562.386719 84.628906 C 555.78125 89.25 550.101562 95.429688 543.046875 99.128906 C 536.941406 102.320312 530.082031 103.480469 523.316406 103.648438 C 515.027344 103.851562 506.105469 102.269531 500.441406 95.769531 C 495.238281 89.769531 493.996094 80.539062 496.195312 72.671875 C 498.398438 64.800781 503.675781 58.269531 509.871094 53.539062 C 516.066406 48.808594 523.257812 45.539062 527.367188 38.769531 C 529.539062 35.191406 530.589844 30.96875 532.394531 27.160156 C 538.167969 14.96875 551.152344 8.371094 563.703125 7.550781 C 576.253906 6.730469 588.691406 10.789062 600.644531 15.191406 C 612.597656 19.589844 624.640625 24.429688 637.257812 25.339844 C 642.871094 25.71875 648.710938 25.339844 653.921875 27.648438 C 660.929688 30.738281 665.523438 38.128906 668.65625 45.648438 C 672.164062 54.128906 674.347656 63.390625 673.976562 72.648438 C 673.203125 92.421875 661.179688 111.820312 666.464844 130.761719 C 667.863281 135.808594 670.488281 140.988281 669.089844 146.039062 C 667.042969 153.410156 658.289062 155.089844 651.207031 155.441406 C 649.363281 151.050781 650.351562 145.96875 650.386719 141.148438 C 650.421875 136.328125 648.785156 130.640625 644.511719 129.339844 C 635.96875 126.75 630.074219 144.050781 621.675781 140.929688 C 615.277344 138.539062 616.933594 127.929688 613.214844 121.800781 C 610.277344 116.941406 604.382812 115.578125 599.816406 112.539062 C 590.082031 106.050781 590.378906 95.671875 585.855469 85.851562 C 581.085938 75.511719 571.078125 78.550781 562.386719 84.628906 Z M 562.386719 84.628906 "/>
<path style=" stroke:none;fill-rule:nonzero;fill:rgb(90.980392%,96.078431%,100%);fill-opacity:1;" d="M 427.3125 465.160156 L 420.285156 467.820312 C 420.285156 467.820312 423.046875 512.941406 413.839844 525.878906 C 404.632812 538.820312 444.078125 570.988281 444.078125 570.988281 C 444.078125 570.988281 498.148438 570.660156 499.675781 565.988281 C 501.207031 561.320312 496.914062 482.390625 496.914062 482.390625 C 496.914062 482.390625 467.890625 470.109375 470.332031 450.539062 C 470.332031 450.539062 461.472656 496.648438 448.34375 494.660156 C 435.210938 492.671875 420.304688 480.761719 427.3125 465.160156 Z M 427.3125 465.160156 "/>
<use xlink:href="#surface59" mask="url(#mask18)"/>
<path style=" stroke:none;fill-rule:nonzero;fill:rgb(100%,75.686275%,78.039216%);fill-opacity:1;" d="M 471.011719 466.488281 C 471.011719 466.488281 467.328125 344.410156 435.265625 371.609375 C 403.203125 398.808594 402.890625 431.339844 408.996094 440.949219 C 415.101562 450.558594 434.675781 498.671875 434.675781 498.671875 C 440.890625 502.578125 448.449219 503.019531 455.011719 499.851562 C 461.570312 496.6875 466.335938 490.296875 467.828125 482.671875 Z M 471.011719 466.488281 "/>
<use xlink:href="#surface62" mask="url(#mask19)"/>
<path style=" stroke:none;fill-rule:nonzero;fill:rgb(20.784314%,19.215686%,27.45098%);fill-opacity:1;" d="M 588.644531 254.238281 C 588.257812 253.949219 579.089844 246.820312 574.492188 238.238281 C 569.722656 229.328125 586.90625 211.898438 587.089844 211.140625 L 588.933594 213.191406 C 587.761719 217.910156 574.382812 230.039062 577.707031 236.238281 C 581.898438 244.070312 590.71875 250.921875 590.808594 250.988281 Z M 588.644531 254.238281 "/>
<path style=" stroke:none;fill-rule:nonzero;fill:rgb(90.980392%,96.078431%,100%);fill-opacity:1;" d="M 625.984375 213.550781 L 624.546875 211.398438 C 624.84375 211.171875 653.765625 188.449219 658.324219 181.101562 L 658.472656 180.878906 L 658.683594 180.730469 C 658.773438 180.660156 667.992188 174.179688 669.492188 166.019531 C 670.054688 162.9375 669.382812 159.746094 667.652344 157.230469 L 667.441406 156.890625 L 667.441406 156.648438 C 667.257812 156.390625 665.902344 154.921875 659.050781 155.558594 L 658.839844 152.910156 C 663.988281 152.429688 667.386719 152.980469 668.96875 154.550781 C 669.363281 154.917969 669.652344 155.398438 669.804688 155.941406 C 671.820312 159.011719 672.570312 162.851562 671.886719 166.550781 C 670.867188 172.078125 666.988281 176.75 663.921875 179.679688 C 661.390625 182.109375 658.949219 184.679688 656.511719 187.210938 C 647.257812 196.839844 627 212.761719 625.984375 213.550781 Z M 625.984375 213.550781 "/>
<path style=" stroke:none;fill-rule:nonzero;fill:rgb(90.980392%,96.078431%,100%);fill-opacity:1;" d="M 438.664062 404.605469 L 441.105469 404.558594 L 441.375 420.664062 L 438.9375 420.714844 Z M 438.664062 404.605469 "/>
<path style=" stroke:none;fill-rule:nonzero;fill:rgb(42.352941%,38.823529%,100%);fill-opacity:1;" d="M 456.28125 387.648438 C 456.28125 398.335938 448.300781 407 438.460938 407 C 428.621094 407 420.644531 398.335938 420.644531 387.648438 C 420.644531 376.964844 428.621094 368.300781 438.460938 368.300781 C 448.300781 368.300781 456.28125 376.964844 456.28125 387.648438 Z M 456.28125 387.648438 "/>
<path style=" stroke:none;fill-rule:nonzero;fill:rgb(90.980392%,96.078431%,100%);fill-opacity:1;" d="M 453.257812 387.648438 C 453.257812 396.523438 446.632812 403.71875 438.460938 403.71875 C 430.289062 403.71875 423.664062 396.523438 423.664062 387.648438 C 423.664062 378.773438 430.289062 371.578125 438.460938 371.578125 C 446.632812 371.578125 453.257812 378.773438 453.257812 387.648438 Z M 453.257812 387.648438 "/>
<path style=" stroke:none;fill-rule:nonzero;fill:rgb(20.784314%,19.215686%,27.45098%);fill-opacity:1;" d="M 518.71875 510.839844 C 517.488281 510.84375 516.261719 510.773438 515.035156 510.628906 C 497.796875 511.734375 480.816406 505.695312 467.515625 493.738281 C 450.019531 477.738281 440.09375 451.878906 438.046875 416.851562 L 441.730469 416.601562 C 443.703125 450.5 453.167969 475.429688 469.890625 490.691406 C 490.3125 509.339844 514.613281 506.691406 514.851562 506.691406 L 515.257812 506.691406 C 523.386719 507.828125 531.546875 504.882812 537.429688 498.691406 C 554.179688 481.761719 559.199219 442.339844 558.433594 421.46875 C 557.515625 397.960938 565.332031 330.679688 574.640625 317.339844 C 582.789062 305.648438 587.84375 252.960938 587.902344 252.429688 L 588.039062 250.929688 L 589.402344 250.671875 C 589.484375 250.671875 597.441406 249.03125 598.433594 242.570312 C 599.722656 234.148438 622.835938 212.140625 625.460938 209.648438 L 627.863281 212.648438 C 618.316406 221.648438 602.855469 237.929688 602.082031 243.21875 C 600.957031 250.539062 594.355469 253.339844 591.445312 254.21875 C 590.523438 262.980469 585.671875 308.128906 577.632812 319.71875 C 569.402344 331.53125 561.195312 396.390625 562.117188 421.28125 C 562.910156 442.859375 557.597656 483.738281 539.945312 501.578125 C 534.261719 507.566406 526.640625 510.894531 518.71875 510.839844 Z M 518.71875 510.839844 "/>
<use xlink:href="#surface65" mask="url(#mask20)"/>
<use xlink:href="#surface68" mask="url(#mask21)"/>
<path style=" stroke:none;fill-rule:nonzero;fill:rgb(90.980392%,96.078431%,100%);fill-opacity:1;" d="M 823.257812 396.488281 L 833.949219 408.769531 C 833.949219 408.769531 842.503906 476.441406 846.777344 482.769531 C 851.050781 489.101562 861.140625 514.28125 851.667969 533.191406 C 851.667969 533.191406 848.617188 543.480469 850.453125 547.789062 C 852.285156 552.101562 836.703125 573.671875 836.703125 573.671875 C 836.703125 573.671875 816.234375 593.570312 811.953125 596.558594 C 807.671875 599.550781 785.074219 623.429688 777.441406 623.761719 C 769.804688 624.089844 767.3125 634.378906 767.3125 634.378906 L 724.234375 636.039062 C 724.234375 636.039062 700.421875 634.691406 695.265625 638.339844 C 695.265625 638.339844 698.03125 598.859375 671.445312 572.980469 L 705.351562 559.710938 C 705.351562 559.710938 718.1875 553.710938 722.15625 547.441406 C 724.652344 543.597656 728.191406 540.695312 732.285156 539.148438 C 732.285156 539.148438 741.75 531.851562 742.054688 527.871094 C 742.355469 523.890625 753.628906 519.011719 753.628906 519.011719 L 747.246094 459.859375 L 750.609375 361.660156 C 750.609375 361.660156 761.296875 279.378906 783.902344 284.03125 C 806.511719 288.679688 823.257812 396.488281 823.257812 396.488281 Z M 823.257812 396.488281 "/>
<use xlink:href="#surface71" mask="url(#mask22)"/>
<use xlink:href="#surface74" mask="url(#mask23)"/>
<use xlink:href="#surface77" mask="url(#mask24)"/>
<use xlink:href="#surface80" mask="url(#mask25)"/>
<path style=" stroke:none;fill-rule:nonzero;fill:rgb(100%,80%,81.568627%);fill-opacity:1;" d="M 357.863281 359.191406 C 350.496094 365.460938 345.121094 380.300781 341.226562 396.609375 C 334.429688 425.058594 332.210938 458.050781 332.210938 458.050781 C 332.210938 458.050781 273.554688 443.449219 277.828125 436.820312 C 280.515625 432.648438 276.90625 401.230469 273.894531 378.449219 C 272.097656 364.988281 270.496094 354.539062 270.496094 354.539062 C 270.496094 354.539062 378.03125 341.929688 357.863281 359.191406 Z M 357.863281 359.191406 "/>
<use xlink:href="#surface83" mask="url(#mask26)"/>
<path style=" stroke:none;fill-rule:nonzero;fill:rgb(100%,80%,81.568627%);fill-opacity:1;" d="M 389.390625 322.121094 C 389.40625 358.03125 365.574219 388.722656 332.980469 394.773438 C 300.382812 400.824219 268.519531 380.476562 257.546875 346.597656 C 246.574219 312.722656 259.6875 275.1875 288.59375 257.742188 C 317.496094 240.300781 353.773438 248.027344 374.464844 276.039062 C 384.125 289.109375 389.390625 305.363281 389.390625 322.121094 Z M 389.390625 322.121094 "/>
<use xlink:href="#surface86" mask="url(#mask27)"/>
<path style=" stroke:none;fill-rule:nonzero;fill:rgb(100%,45.490196%,55.686275%);fill-opacity:1;" d="M 439.160156 782.679688 L 196.65625 782.679688 C 197.707031 780.089844 198.40625 778.519531 198.40625 778.519531 C 198.40625 778.519531 217.808594 686.339844 227.671875 647.339844 C 227.671875 647.308594 227.671875 647.273438 227.671875 647.238281 C 228.902344 641.941406 230.390625 636.71875 232.128906 631.589844 C 232.238281 631.242188 232.382812 630.90625 232.558594 630.589844 C 237.441406 621.96875 243.554688 612.679688 235 599.410156 C 226.445312 586.140625 229.476562 527.75 229.476562 527.75 C 229.476562 527.75 239.863281 477.980469 250.855469 451.441406 C 252.523438 447.328125 254.894531 443.597656 257.835938 440.441406 C 258.792969 439.421875 259.816406 438.480469 260.894531 437.621094 C 261.714844 436.949219 262.566406 436.332031 263.453125 435.769531 L 263.628906 435.648438 C 268.246094 432.804688 273.375 431.078125 278.664062 430.578125 C 282.421875 430.152344 286.214844 430.269531 289.945312 430.921875 C 307.773438 433.761719 322.042969 438.511719 333.386719 443.921875 C 364.132812 458.589844 373.445312 478.25 373.628906 478.660156 L 373.703125 478.828125 C 374.933594 481.960938 392.984375 527.71875 399.484375 549.070312 C 401.167969 554.628906 402.089844 558.539062 401.722656 559.609375 C 399.878906 564.910156 415.773438 631.261719 415.773438 631.261719 C 415.773438 631.261719 423.140625 663.261719 430.507812 700.769531 C 430.828125 702.328125 431.132812 703.890625 431.425781 705.46875 C 432.742188 712.28125 434.050781 719.21875 435.3125 726.148438 C 437.757812 740.433594 439.019531 754.921875 439.078125 769.449219 C 439.214844 773.976562 439.242188 778.386719 439.160156 782.679688 Z M 439.160156 782.679688 "/>
<use xlink:href="#surface89" mask="url(#mask28)"/>
<path style=" stroke:none;fill-rule:nonzero;fill:rgb(100%,45.490196%,55.686275%);fill-opacity:1;" d="M 277.21875 406.429688 C 277.21875 406.429688 260.488281 399.429688 260.691406 410.050781 C 260.894531 420.671875 264.769531 425.75 263.546875 427.300781 C 262.320312 428.851562 264.152344 438.140625 264.152344 438.140625 C 264.152344 438.140625 286.757812 438.140625 297.144531 443.230469 C 307.53125 448.320312 345.820312 458.488281 350.710938 461.578125 C 355.597656 464.671875 373.730469 478.578125 373.730469 478.578125 L 375.378906 452.339844 C 375.378906 452.339844 356.640625 435.53125 325.894531 426.910156 C 295.148438 418.289062 277.21875 406.429688 277.21875 406.429688 Z M 277.21875 406.429688 "/>
<use xlink:href="#surface92" mask="url(#mask29)"/>
<use xlink:href="#surface95" mask="url(#mask30)"/>
<path style=" stroke:none;fill-rule:nonzero;fill:rgb(100%,80%,81.568627%);fill-opacity:1;" d="M 448.683594 782.679688 L 394.03125 782.679688 C 386.390625 775.480469 379.160156 768.808594 374.558594 764.800781 C 367.191406 758.378906 361.878906 748.929688 358.488281 741.328125 C 357.726562 739.601562 357.0625 737.980469 356.5 736.511719 C 355.496094 733.976562 354.609375 731.390625 353.847656 728.761719 L 394.320312 702.660156 C 396.554688 704.726562 398.65625 706.957031 400.609375 709.339844 L 401.097656 709.949219 C 403.34375 712.828125 405.324219 716.101562 405.496094 718.78125 C 405.699219 721.898438 413.691406 733.96875 421.859375 745.558594 C 430.148438 757.351562 438.636719 768.621094 439.199219 769.378906 C 439.199219 769.378906 440.597656 771.449219 442.882812 774.628906 C 444.492188 776.929688 446.484375 779.691406 448.683594 782.679688 Z M 448.683594 782.679688 "/>
<use xlink:href="#surface98" mask="url(#mask31)"/>
<path style=" stroke:none;fill-rule:nonzero;fill:rgb(100%,87.843137%,81.568627%);fill-opacity:1;" d="M 369.300781 288.339844 C 368.5625 303.640625 369.75 337.851562 354.144531 345.519531 C 346.417969 349.300781 338.148438 341.011719 329.675781 340.808594 C 323.582031 340.660156 318 344.871094 314.273438 350.109375 C 310.542969 355.351562 308.25 361.589844 305.542969 367.539062 C 303.085938 372.929688 300.257812 378.113281 297.082031 383.039062 C 295.183594 385.960938 293.085938 388.890625 290.164062 390.53125 C 285.082031 393.410156 278.921875 391.789062 273.472656 389.941406 C 266.398438 387.519531 259.433594 384.792969 252.570312 381.761719 C 252.726562 380.632812 252.804688 379.5 252.808594 378.359375 C 252.605469 378.78125 252.386719 379.171875 252.164062 379.589844 L 251.730469 380.410156 C 250.949219 381.910156 250.183594 383.410156 249.484375 384.949219 C 249.21875 385.539062 248.960938 386.148438 248.730469 386.761719 C 247.804688 389.03125 247.222656 391.449219 247.007812 393.921875 C 246.539062 400.589844 249.566406 406.921875 252.257812 412.921875 C 262.597656 436.128906 268.988281 463.269531 261.207031 487.621094 C 257.835938 498.210938 252 507.621094 247.734375 517.851562 C 240.28125 535.96875 238.089844 556.125 241.445312 575.628906 C 243.574219 587.75 247.835938 599.75 246.785156 612.039062 C 244.945312 633.191406 228.148438 648.929688 211.324219 659.75 C 202.238281 665.570312 191.113281 670.75 181.464844 666.148438 C 187.613281 658.351562 189.199219 647.558594 190.523438 637.378906 C 194.152344 609.613281 197.789062 581.832031 201.4375 554.039062 C 202.890625 542.980469 204.34375 531.921875 205.792969 520.859375 C 208.5 500.078125 211.242188 479.070312 209.546875 458.160156 C 208.316406 442.75 204.835938 426.390625 210.984375 412.441406 C 214.234375 405.050781 220.027344 398.929688 221.832031 390.96875 C 223.316406 384.5 221.933594 377.621094 222.910156 371.03125 C 223.445312 368.03125 224.347656 365.125 225.597656 362.390625 C 227.191406 358.679688 229.269531 355.234375 231.769531 352.171875 C 229.300781 351.390625 227 350.320312 225.597656 348.078125 C 229.558594 345.28125 230.15625 338.96875 228.359375 334.230469 C 226.566406 329.488281 222.972656 325.878906 219.742188 322.140625 C 216.511719 318.398438 213.398438 314.039062 212.992188 308.941406 C 212.210938 299.230469 221.140625 291.710938 222.714844 282.128906 C 224.308594 272.378906 218.011719 262.898438 218.515625 253.03125 C 219.105469 241.101562 229.199219 232.429688 239.160156 227.398438 C 254.195312 219.839844 270.804688 216.738281 287.300781 218.398438 C 300.726562 219.78125 313.71875 224.289062 327.109375 226.039062 C 335.183594 227.039062 343.371094 227.140625 351.390625 228.679688 C 359.410156 230.21875 367.449219 233.46875 373.09375 239.859375 C 387.972656 256.710938 370.148438 270.578125 369.300781 288.339844 Z M 369.300781 288.339844 "/>
<use xlink:href="#surface101" mask="url(#mask32)"/>
<path style=" stroke:none;fill-rule:nonzero;fill:rgb(100%,45.490196%,55.686275%);fill-opacity:1;" d="M 359.289062 737.339844 C 354.605469 735.121094 346.050781 736.449219 331.390625 731.589844 C 316.730469 726.730469 313.894531 704.828125 313.894531 704.828125 L 313.894531 704.761719 C 313.730469 704.25 312.355469 701 303.128906 689.578125 C 292.9375 676.96875 270.902344 613.269531 270.902344 613.269531 C 270.902344 613.269531 251.363281 590.488281 251.96875 582.089844 C 252.578125 573.691406 248.507812 551.339844 248.914062 526.359375 C 249.320312 501.378906 292.871094 484.808594 292.871094 484.808594 C 376.785156 468.660156 357.027344 573.71875 354.789062 581.679688 C 352.550781 589.640625 364.160156 611.140625 364.160156 611.140625 C 362.523438 620.5 370.882812 634.988281 370.882812 634.988281 C 370.882812 634.988281 372.910156 647.808594 373.332031 652.679688 C 373.347656 652.90625 373.390625 653.128906 373.460938 653.339844 C 374.804688 657.929688 385.765625 662.089844 390.230469 664.621094 C 394.90625 667.269531 409.992188 690.5 409.992188 690.5 C 413.257812 707.519531 363.976562 739.601562 359.289062 737.339844 Z M 359.289062 737.339844 "/>
<use xlink:href="#surface104" mask="url(#mask33)"/>
<path style=" stroke:none;fill-rule:nonzero;fill:rgb(100%,45.490196%,55.686275%);fill-opacity:1;" d="M 359.289062 737.339844 C 354.605469 735.121094 346.050781 736.449219 331.390625 731.589844 C 316.730469 726.730469 313.894531 704.828125 313.894531 704.828125 L 313.894531 704.761719 C 323.609375 697.761719 348.214844 677.988281 357.910156 670.761719 C 364.734375 665.691406 370.304688 658.238281 373.5625 653.300781 C 374.90625 657.890625 385.867188 662.050781 390.332031 664.578125 C 395.007812 667.230469 410.09375 690.460938 410.09375 690.460938 C 413.257812 707.519531 363.976562 739.601562 359.289062 737.339844 Z M 359.289062 737.339844 "/>
<use xlink:href="#surface107" mask="url(#mask34)"/>
<use xlink:href="#surface110" mask="url(#mask35)"/>
<path style=" stroke:none;fill-rule:nonzero;fill:rgb(100%,45.490196%,55.686275%);fill-opacity:1;" d="M 252.171875 379.601562 C 248.554688 361.808594 231.777344 352.179688 231.777344 352.179688 C 229.277344 355.246094 227.199219 358.6875 225.609375 362.398438 C 232.523438 366.511719 245.265625 380.289062 249.492188 384.960938 Z M 252.171875 379.601562 "/>
</g>
</svg>
