<?xml version="1.0" encoding="utf-8"?>
<!-- Svg Vector Icons : http://www.onlinewebfonts.com/icon -->
<!DOCTYPE svg PUBLIC "-//W3C//DTD SVG 1.1//EN" "http://www.w3.org/Graphics/SVG/1.1/DTD/svg11.dtd">
<svg version="1.1" xmlns="http://www.w3.org/2000/svg" xmlns:xlink="http://www.w3.org/1999/xlink" x="0px" y="0px" viewBox="0 0 1000 1000" enable-background="new 0 0 1000 1000" xml:space="preserve">
<metadata> Svg Vector Icons : http://www.onlinewebfonts.com/icon </metadata>
<g><path d="M29,732c114.2-4.7,124.4-24.8,124.4-118V141c0-93.2-10.3-106.2-118-113.3V10h302.7c127,0,265.6,35.4,265.6,186.4c0,100.3-57.7,159.3-156.5,200.6c20.5,36.6,74.4,112.1,114.2,161.5c44.4,50.2,258.5,424.1-30,59.3c-24.6-31.1-68.9-79.7-125.6-160.4c-30.5-43.4-74-39.2-183.1-39.2V614c0,93.2,10.3,113.3,120.6,118v16.5H29V732z M301,394.7c74.4,0,121.9-9.4,156.5-35.4c42.4-30.7,66.7-77.9,66.7-145.1c0-126.3-88.5-180.5-221.9-180.5c-34.6,0-56.4,1.2-68,2.4c-6.4,0-11.5,3.5-11.5,26v332.8L301,394.7L301,394.7z"/><path d="M400.2,429l34.3-26.2v16.5c-41.1,5.9,111.7,108.9,111.7,123c0,8.2,16.8,18.1,29.6,32.3L667,691.4c21.8-33,48.7-69.6,80.8-119.2c7.7-11.8,11.6-21.2,11.6-29.4c0-16.5-19.3-22.4-57.7-27.1v-16.5h248.8v16.5c-89.8,7.1-115.4,23.6-168,81.3c-21.8,24.8-56.4,61.3-98.8,115.6l138.5,177c47.5,57.8,50,68.4,148.8,83.8V990H717v-16.5c41.1-4.7,61.6-10.6,61.6-26c0-8.3-5.1-17.7-14.1-31.9L647.7,764.6c-35.9,50.7-68,93.2-96.2,136.9c-11.5,18.9-16.7,31.9-16.7,41.3c0,18.9,20.5,24.8,66.7,30.7V990H360.4v-16.5c96.2-10.6,94.9-16.5,154-82.6c41.1-48.4,75.7-95.6,119.3-148.7L518.2,595.9c-41.1-53-41-142.1-117.9-150.3V429z"/></g>
</svg>